<svg xmlns="http://www.w3.org/2000/svg" viewBox="0 0 286.82 222.82"><defs><style>.cls-1{fill:#f5f2ab;}.cls-2{isolation:isolate;font-size:60px;fill:#d676ab;font-family:Herculanum;}.cls-3{fill:#ae88ba;}.cls-4{fill:#d695bd;}.cls-5{fill:#4faa55;}.cls-6{fill:#4c6a46;}</style></defs><title>Asset 1</title><g id="Layer_2" data-name="Layer 2"><g id="Layer_1-2" data-name="Layer 1"><path class="cls-1" d="M228.75,84.69c-3.6-1.19-5.63-3.21-7.69-6.32a4.75,4.75,0,0,1-.83-2.39A19,19,0,0,1,214,76c-3.52-.6-5-6.11-2.21-8.36.4-.32,1-1.12,1.55-1.7h0a4.91,4.91,0,0,1-3.49-3.49c-1.35-4.73.37-8.23,4-10.71A4.53,4.53,0,0,1,218,49.37h.07a111.09,111.09,0,1,0,15.36,34.21A4.93,4.93,0,0,1,228.75,84.69Z"/><text class="cls-2" transform="matrix(0.86, 0.13, -0.15, 0.99, 130.52, 125.24)">M</text><path class="cls-3" d="M46.29,142.63l.69,1.19-5.8,6.69L39,153l0,.07c1.1-.21,2.18-.46,3.27-.66L51,150.78l.69,1.19-12.35,7.12-.47-.81L47,153.6c1-.58,2.34-1.27,3.4-1.82l0-.07-3.3.65L38.18,154l-.42-.73,5.85-6.85,2.21-2.54,0-.07c-1,.64-2.27,1.45-3.28,2l-8.12,4.68-.45-.77Z"/><path class="cls-3" d="M61,167.54c1.77,2.56.72,5.48-1.67,7.13s-5.49,1.62-7.26-.94-.7-5.45,1.69-7.1S59.28,165,61,167.54Zm-8,5.53a4.26,4.26,0,1,0,1.16-5.81A4.06,4.06,0,0,0,53.06,173.07Z"/><path class="cls-3" d="M73.38,177l.66.49-.9,1.38,0,0a4.86,4.86,0,0,1,3.81.48,2.73,2.73,0,0,1,1,3.48c1.75-.34,3.19-.3,4.16.43,1.68,1.26,1.73,3,.1,5.14l-4.07,5.42-.78-.58,4-5.32c1.34-1.79,1.38-3.09.09-4.07-.79-.6-2-.67-3.72-.31L73,189.93l-.78-.58,4-5.32c1.34-1.79,1.38-3.09.09-4.07-.76-.57-2-.67-3.72-.31L67.82,186l-.78-.58Z"/><path class="cls-3" d="M89.61,196.75c0-3.53,2.21-5.57,4.74-5.57s4.74,2,4.74,5.57-2.2,5.53-4.74,5.53S89.61,200.24,89.61,196.75Zm8.46,0c0-2.78-1.59-4.71-3.72-4.71s-3.72,1.93-3.72,4.71,1.59,4.67,3.72,4.67S98.07,199.53,98.07,196.75Z"/><path class="cls-3" d="M110.63,190.21h1v11.67h0l5.21-6.4H118l-3.44,4.18,4,6.39h-1.08L114,200.39l-2.37,2.78v2.88h-1V190.21Z"/><path class="cls-3" d="M126.66,200.78c0-3.53,2.21-5.57,4.74-5.57s4.74,2,4.74,5.57-2.21,5.53-4.74,5.53S126.66,204.27,126.66,200.78Zm8.47,0c0-2.78-1.59-4.71-3.72-4.71s-3.72,1.93-3.72,4.71,1.59,4.67,3.72,4.67S135.13,203.56,135.13,200.78Z"/><path class="cls-3" d="M170.29,190.79l.16-1a8.18,8.18,0,0,0,5-2.27c2-1.86,2.51-3.81,1.45-5s-2.54-.59-4.22.18l-2.59,1.19c-1.48.69-3.54,1.5-4.87.08s-.59-3.88,1.58-5.9a8.1,8.1,0,0,1,4.71-2.24l-.11.94a6.79,6.79,0,0,0-4,1.91c-1.72,1.61-2.25,3.36-1.28,4.4s2.74.33,4-.25l2.58-1.19c1.91-.88,3.74-1.49,5.11,0s.77,4.12-1.76,6.48A9.31,9.31,0,0,1,170.29,190.79Z"/><path class="cls-3" d="M187.31,177c-1.36-1.91-.28-4.05,3.25-7.2-.92-1.34-2.29-2.5-4-1.3a5.76,5.76,0,0,0-2,3l-.78-.33a7.12,7.12,0,0,1,2.41-3.4c2-1.45,3.78-.46,5.09,1.38l3.91,5.5-.67.48-.88-1.06,0,0a6.25,6.25,0,0,1-2.11,3.51A2.77,2.77,0,0,1,187.31,177Zm5.76-3.67L191,170.39c-3.25,2.92-3.87,4.6-2.89,6a2,2,0,0,0,3,.41A5.56,5.56,0,0,0,193.07,173.32Z"/><path class="cls-3" d="M205.32,159.83,199,157.45l-.58,1.55-.71-.26.5-1.6L195.34,156l.29-.78,2.87,1.07,1.07-2.87.79.3-1.07,2.87,6.44,2.4c1.26.47,2.23.47,2.74-.89a3.82,3.82,0,0,0,.15-1.36l.83,0a6.08,6.08,0,0,1-.23,1.75C208.51,160.39,207.09,160.49,205.32,159.83Z"/><path class="cls-3" d="M211,146.06c-3.49-.53-5.17-3-4.79-5.52s2.72-4.39,6.21-3.86,5.13,3,4.75,5.52S214.4,146.58,211,146.06Zm1.27-8.37c-2.75-.42-4.89.87-5.21,3s1.35,4,4.1,4.39,4.85-.87,5.17-3S215,138.11,212.22,137.69Z"/><path class="cls-4" d="M34,128.74c-8.1-17.9-9.32-38.54-2.51-57.07,4-10.74,10.07-21.19,22.47-22.83,11.82-1.56,23.19,4,33.54,9,.59.28,2.53,0,2.79-.75a264.27,264.27,0,0,1,14.76-32.69,50.77,50.77,0,0,1,3.47-5.57c3-4,5.4-5.95,10.37-7.3,7.39-2,15,.11,22.28,1.93,11.49,2.87,23.15,6.8,33.47,12.69,8.37,4.78,16.23,11.61,17.67,21.62.08.54,3,0,2.9-.78-1.67-11.61-11.84-19-21.67-23.86A144.28,144.28,0,0,0,131.07,9.74c-9.63-1.43-18.29.53-24.52,8.41-4.13,5.22-6.91,11.52-9.75,17.49-3.41,7.18-6.5,14.5-9.36,21.91l2.79-.75C73.11,48.61,48.51,40,35.1,59.19c-14,20.1-13.81,48.63-4,70.3.32.71,3.12-.27,2.91-.75Z"/><path class="cls-5" d="M33.29,182.79c-9.3-.21-16.21,6.91-23,12.34-3.16,2.51-15.13,11.36-8,15.2s17.66,1.61,24.08-2.34a27.59,27.59,0,0,0,12.65-19.6c.22-1.44-2.74-1.06-2.93.23-2.07,13.66-14.48,23.68-28.47,20.85-9.87-2,1.82-10.79,5.4-13.64,5.49-4.36,11.87-11.12,19.36-11,1.37,0,3-2,1-2.09Z"/><path class="cls-5" d="M239,133.27c9.21-2.21,18.78-3.82,28.23-2.13a38.88,38.88,0,0,1,9.37,2.91,24.48,24.48,0,0,1,4.94,2.78c3.33,2.6,2.8,3.69-.83,6.16-7,4.73-18.57,5.39-26.7,4.41a32.9,32.9,0,0,1-19.22-9.6c-.56-.55-3.23.51-2.72,1,7.09,7,16,10.16,25.9,10.13,8.81,0,19.65-1.65,27-6.89,7.66-5.44-11-11.17-14.58-11.89-10.58-2.12-21.33-.33-31.67,2.15-1.72.39-1.47,1.37.25,1Z"/><path class="cls-5" d="M28.17,192.1A63.63,63.63,0,0,0,13,200.61l2.26.23,7.83-6.18c1.2-.95-1.67-.7-2.26-.23L13,200.61c-1.21,1,1.68.67,2.26.23a59.08,59.08,0,0,1,14-7.88c1.9-.75.13-1.33-1.06-.86Z"/><path class="cls-5" d="M26.87,190.29a12.59,12.59,0,0,0-5.35,1.79c-1.43.92-2.74,3.69-4.08,4.27l1.93.07c0-.15,0-.3,0-.44l-2.33,1,.32.07-.3-1.11c-3.78,4-9.83,4.5-13.64,8.44-2.1,2.17-2.25,4.94,1.16,5.86,4.63,1.26,10.67-2.68,14.43-4.85,4-2.31,9-4.89,8.88-10.1,0-.91-2-.35-2.36-.1a52.33,52.33,0,0,0-9.27,8.51l2.32-.45C15.82,201.92,23.12,193,24,192l-2.63-.12a21.05,21.05,0,0,1-4.54,9.21l2.63.12a9.64,9.64,0,0,1,3-7.15l-2.53-.34a25.21,25.21,0,0,1-5.19,5.9l2.62-.11,1-3-2.81.1a18.89,18.89,0,0,1-4.18,7.16l2.62-.11c0-1.12.1-2.24.14-3.35l-2.81.1a11.86,11.86,0,0,1-1.05,3.48q-6.18-.68-1.5-4.52a44.58,44.58,0,0,1,5-4c3.31-2.64,6.56-5.47,10.27-7.53s8.62-3.73,10.93,1.34a7.91,7.91,0,0,1-.27,6.51c-2.2,3.89-9.94,6.32-13.72,8.33l2.36.1a13.59,13.59,0,0,1,2.05-14l-2.81.33a8.53,8.53,0,0,1-.4,8l2.72.12a21.72,21.72,0,0,1,4.53-6.75l-2.62.11a8.91,8.91,0,0,1-.17,6.25c-.39,1,2.52.69,2.91-.33a9,9,0,0,0,.16-6.7c-.31-1-2.14-.38-2.62.11a23.18,23.18,0,0,0-4.9,7.19c-.6,1.37,2.24,1,2.72.12a9.51,9.51,0,0,0,.58-8.91c-.44-1.08-2.32-.29-2.81.33a14.56,14.56,0,0,0-2.23,14.9c.35.89,1.78.4,2.36.1,7-3.7,19.45-7.61,14.53-17.94-3.26-6.85-12.77-1.8-17.2,1.11-4,2.6-7.6,5.73-11.28,8.69-2.2,1.77-6.51,4.84-4.77,8.32,1.12,2.25,3.88,2.32,5.93,1.44,2.75-1.18,3.64-3.72,4.18-6.49.24-1.23-2.47-.6-2.81.1a4.69,4.69,0,0,0-.33,4.26c.32.94,2.15.42,2.62-.11a21.89,21.89,0,0,0,4.74-8c.41-1.24-2.43-.42-2.81.1a5.27,5.27,0,0,0-1.14,3.93c0,1.07,2.25.2,2.62-.11a26.91,26.91,0,0,0,5.56-6.34c.8-1.25-2-.84-2.53-.34a11,11,0,0,0-3.52,8.05c0,1.19,2.16.67,2.63.12a23.23,23.23,0,0,0,5.1-10.1c.27-1.19-2.24-.58-2.63-.12-1.73,2.06-9.81,11.1-5.31,13.27a2.27,2.27,0,0,0,2.32-.45,49.15,49.15,0,0,1,8.75-8.11l-2.36-.1c.13,4.72-5.89,7.34-9.31,9.22-1.7.93-3.79,2.3-5.73,2.61q-2.88,1.65-5-2a8.88,8.88,0,0,1,2.61-2.28c3.94-2.67,8.52-3.49,11.88-7.08.4-.43.36-1-.3-1.11l-.32-.07a2.09,2.09,0,0,0-2.33,1c-.25.67-.21.73.21,1.28s1.46.27,1.93.07c3.4-1.46,3.06-5,7.89-5.65,1.43-.22,2.35-2,.35-1.76Z"/><path class="cls-5" d="M19.79,196.56l-2.93.92,1.53.7a80.85,80.85,0,0,1,6-6.65c1.22-1.2-1.5-.91-2-.61l-6,3.28,2.23.41,3.24-5.06c.73-1.14-2.18-.65-2.69,0A119.34,119.34,0,0,1,7.72,201.86c-1.23,1.16,1.65,1,2.31.42l3.12-2.57-2.5.35c.74.68,1.88.81,2.5,1.37,1.61,1.45,2.12,4.8,2.79,6.84.3.92,2.78.24,2.89-.58a7.86,7.86,0,0,1,2.81-5.32l-2.6.18,1.65,3.26c.46.9,2.65.26,2.89-.58l4-13.72-2.89.58c.66,2.48,1.32,4.95,2,7.43.26,1,2.92.19,2.9-.78q-.12-6.53-.25-13l-2.8.94,6.08,8.73c.47.67,2.7,0,2.79-.75A12.76,12.76,0,0,0,35,189.1c-.27-1-2.44-.13-2.79.38a40.28,40.28,0,0,0-4.49,8.32l2.89-.38c1.08-3.46,1.36-7.56-3.05-8.26-.88-.14-3.4,1.26-1.79,1.52,3.7.59,2.74,4.59,1.95,7.13-.31,1,2.55.47,2.89-.38a38.6,38.6,0,0,1,4.29-7.92l-2.79.38a8.87,8.87,0,0,1,.37,5.13l2.79-.75-6.08-8.73c-.53-.76-2.81.05-2.8.94q.12,6.53.25,13l2.9-.78c-.66-2.48-1.32-5-2-7.43-.27-1-2.68-.15-2.89.58l-4,13.72,2.89-.58-1.65-3.26c-.43-.84-2.08-.28-2.6.18a9.19,9.19,0,0,0-3.4,6.13l2.89-.58c-.79-2.42-1.59-4.84-2.38-7.26-.11-.33-.58-.41-.88-.4L13.33,199c-.62-.57-1.95-.11-2.5.35l-3.12,2.57,2.31.42a123.83,123.83,0,0,0,11.83-12.73l-2.69,0-3.24,5.06c-.74,1.16,1.86.61,2.23.41l6-3.28-2-.61a83.85,83.85,0,0,0-6.41,7c-.69.84,1.17.81,1.53.7l2.93-.92c1.7-.55,1.38-1.94-.36-1.39Z"/><path class="cls-5" d="M239.34,137.06l-2,5,2.9-.54a8.08,8.08,0,0,1-.43-5.31l-2,1.06.7,1.17,2.6-.91c1.57.15,2.33.94,2.3,2.36q-.82-1.23,2,.51l2.6-.91q3.49-6.47,3.9-3a7.75,7.75,0,0,1,.1,3.22c-1.87,1.41-2.13-1.22-1.24-2.44.33-1.55,1.36-2,3.08-1.24q3.51-1.2,2.31,2c-.46.81-.92,1.61-1.37,2.42q-6.29,4.44-6.47-.85c-1-1.52-.73-2.69.85-3.49a2.1,2.1,0,0,1,3.18-1.11c4.19,2.93-8.35,6.31,1.29,2.25q3.31-3.33,5.54.13c.37.76.74,1.52,1.1,2.28L259,142.13q-1-3.6,3.69-1.62l1.94.1q3.89-3.13,4.16.21a6.1,6.1,0,0,1,5.93-1l1.63-1.05-.38-.5-.85,1.08q-2.47,3.87-4,1c-.55-.64-2.82-.25-2.79.75.24,9.6-13.25,5.1-17,1.49l-1.88,1.5c3.18.23,32.08,1,28.89-6.1-.66-1.45-3.27-1.6-4.47-1.83-3.2-.63-6.42-1.18-9.65-1.68a100.84,100.84,0,0,0-22.89-1.19c0,.57,0,1.15.05,1.72a87.91,87.91,0,0,1,19.18-3.28c6.19-.33,16.75-1.24,18.12,6.85l2.32-1.25-22-4.3c-1-.19-3.48,1.19-1.74,1.71a23.81,23.81,0,0,0,13.79.1c.77-.22,1.92-1.25.65-1.68a26.9,26.9,0,0,0-12-1.24c-.68.08-2.64,1.51-1,1.76l10,1.55c2.38.37,8.91.33,10.67,2.09,2.22,2.23,0,2.92-1.85,3.31l-4.47,1c-2.5.55-10.26,3.4-12.35,1.88-.86-.62-3.5.62-2.28,1.5,3,2.18,8.32-.26,11.5-.95s6.57-1.35,9.83-2.15c1.1-.27,2.87-.53,3.68-1.49,5-5.89-20.37-8-23-8.44l-1,1.76A23.72,23.72,0,0,1,269.83,135l.65-1.68a20.05,20.05,0,0,1-11.61-.16l-1.74,1.71,22,4.3c.72.14,2.5-.18,2.32-1.25-1.2-7.11-8.94-7.94-14.88-8a90.59,90.59,0,0,0-25.77,3.56c-1.35.38-1.7,1.85.05,1.72,9.88-.74,19.58.67,29.28,2.44l3.71.69-.3,2.62c-.85,1-7.21,1.19-8.75,1.34a84.69,84.69,0,0,1-14.42.09c-.5,0-2.73.69-1.88,1.5a16.62,16.62,0,0,0,14.37,4.6c3.95-.67,8.37-3.08,8.26-7.59l-2.79.75c2.47,2.86,7.85,5,10.48.84,2.35-3.71-2.06-5.49-5-4.46-.35.13-1,.61-.85,1.08.5,1.47,1.47,1.73,2.93,1.52.61-.09,1.46-.37,1.63-1,1.93-7.6-12.71-.14-7.29,3.27,1.65,1,4.64-.74,4.06-2.73-.89-3.05-5.56-1.39-7.13-.2-1.9,1.45-3.38,4.86-.08,5.62,2.85.66,4.68-2.39,4.54-4.8-.58-9.31-13.78-4.74-9.78,1.1.37.54,1.48.31,1.94.1,2-.9,3.26-3.12,1.58-5.12-1.54-1.84-4.57-1.21-6.36-.16-4.56,2.7-3.27,11.24,2.26,7.75,2.4-1.51,2.46-4.68,1.3-7-1.83-3.64-6.08-4.82-9.79-3.71-2.43.73-5.28,2.73-5.71,5.43-.47,2.93,1.85,4.49,4.55,4.15,5.62-.7,6.71-10.1,1-10.87-6.17-.83-12.36,10.3-3.63,11.59,4.78.71,12.83-4.32,9.81-10-3.61-6.73-12.05,2.38-12,7,0,2.76,2.23,3.81,4.66,3,3.42-1.1,4.53-5.85,3.27-9-3.2-7.9-14.64,3.56-8.95,5.93.68.28,2.52.12,2.6-.91a4,4,0,0,0-6.91-3.1c-2.37,2.45-.26,7.05,3.26,5.6,3.94-1.63.77-8-2.37-8.7s-7.25,2.89-3.46,5.15c.64.38,2.55.05,2.6-.91.1-1.93-.73-2.45-2.53-2.67-.67-.08-1.82.32-2,1.06a8.26,8.26,0,0,0,.44,5.77c.48,1.16,2.57.32,2.9-.54l2-5c.43-1-2.49-.72-2.9.33Z"/><path class="cls-6" d="M241.64,140.08A61.69,61.69,0,0,0,269.2,139c1.79-.48,1.26-2.5-.54-2a58.05,58.05,0,0,1-26,1c-1.45-.27-2.93,1.78-1,2.14Z"/><path class="cls-6" d="M27.05,190.92a37.72,37.72,0,0,1-16,10.25c-1.67.54-1.38,1.81.34,1.25a43,43,0,0,0,18.34-11.55c.75-.8-2.1-.57-2.68,0Z"/><path class="cls-6" d="M257.65,138a17.68,17.68,0,0,1,4-6.55c.45-.47-.4-.51-.69-.5a3.18,3.18,0,0,0-1.94.7,18.76,18.76,0,0,0-4.18,6.85c-.2.57,2.6.26,2.86-.5Z"/><path class="cls-6" d="M249.52,138.05a7.34,7.34,0,0,1,3.65-6c.45-.25.8-.7.28-1.05s-1.57,0-2,.29a9,9,0,0,0-4.77,7.17c-.08,1.09,2.82.51,2.89-.39Z"/><path class="cls-6" d="M259.86,141.49l4.64,2.14a2.41,2.41,0,0,0,2.05-.28c.37-.23.89-.8.26-1.09l-4.64-2.14a2.41,2.41,0,0,0-2.05.28c-.37.23-.89.8-.26,1.09Z"/><path class="cls-6" d="M249.08,142.46l4,2a2,2,0,0,0,2.08-.18c.42-.31.83-1.14.16-1.47l-4-2a2,2,0,0,0-2.08.18c-.41.31-.83,1.14-.16,1.47Z"/><path class="cls-6" d="M23.33,194.67a8,8,0,0,0-5.51-3.12,1.86,1.86,0,0,0-1.88.9c-.28.66.26,1.18.89,1.26A5.6,5.6,0,0,1,20.68,196c.82,1.06,3.57-.09,2.65-1.3Z"/><path class="cls-6" d="M18.68,200.93q-.42,3.34-.83,6.69c-.1.77,2.77.24,2.86-.49q.42-3.34.83-6.69c.1-.78-2.77-.24-2.86.49Z"/><path class="cls-6" d="M24,193.22l2.69,4c.62.92,3.41-.09,2.67-1.2l-2.69-4c-.61-.91-3.41.1-2.67,1.2Z"/></g></g></svg>