<?xml version="1.0" encoding="utf-8"?>
<!-- Generator: Adobe Illustrator 23.0.4, SVG Export Plug-In . SVG Version: 6.00 Build 0)  -->
<svg version="1.1" id="Layer_1" xmlns="http://www.w3.org/2000/svg" xmlns:xlink="http://www.w3.org/1999/xlink" x="0px" y="0px"
	 viewBox="0 0 340 407" style="enable-background:new 0 0 340 407;" xml:space="preserve">
<style type="text/css">
	.st0{fill:#F5F2AB;}
	.st1{fill:#D676AB;}
	.st2{font-family:'Herculanum';}
	.st3{font-size:60px;}
	.st4{fill:#AE88BA;}
	.st5{fill:#D695BD;}
	.st6{fill:#4FAA55;}
	.st7{fill:#4C6A46;}
</style>
<path class="st0" d="M267.2,164.5c-3.6-1.2-5.6-3.2-7.7-6.3c-0.5-0.8-0.8-1.6-0.8-2.4c-2,0.3-4.1,0.4-6.2,0c-3.5-0.6-5-6.1-2.2-8.4
	c0.4-0.3,1-1.1,1.5-1.7c0,0,0,0,0,0c-1.7-0.3-3-1.9-3.5-3.5c-1.4-4.7,0.4-8.2,4-10.7c0.8-1.4,2.1-2.3,4.1-2.3c0,0,0,0,0.1,0
	c-20-29.8-54-49.4-92.5-49.4c-61.5,0-111.4,49.9-111.4,111.4S102.5,302.7,164,302.7s111.4-49.9,111.4-111.4c0-9.6-1.2-18.9-3.5-27.8
	C270.7,164.5,268.8,165.1,267.2,164.5z"/>
<text transform="matrix(0.8557 0.1313 -0.1517 0.9884 168.9937 205.0998)" class="st1 st2 st3">M</text>
<g>
	<g>
		<path class="st4" d="M84.8,222.5l0.7,1.2l-5.8,6.7c-0.7,0.8-1.5,1.7-2.2,2.5l0,0.1c1.1-0.2,2.2-0.5,3.3-0.7l8.7-1.7l0.7,1.2
			l-12.4,7.1l-0.5-0.8l8.1-4.7c1-0.6,2.3-1.3,3.4-1.8l0-0.1l-3.3,0.6l-8.9,1.6l-0.4-0.7l5.9-6.9l2.2-2.5l0-0.1c-1,0.6-2.3,1.5-3.3,2
			l-8.1,4.7l-0.4-0.8L84.8,222.5z"/>
	</g>
</g>
<g>
	<g>
		<path class="st4" d="M99.5,247.4c1.8,2.6,0.7,5.5-1.7,7.1s-5.5,1.6-7.3-0.9c-1.8-2.5-0.7-5.5,1.7-7.1
			C94.7,244.8,97.8,244.9,99.5,247.4z M91.5,252.9c1.4,2,3.9,2.4,5.9,1s2.5-3.8,1.1-5.8c-1.4-2-3.8-2.4-5.9-1
			C90.7,248.5,90.1,250.9,91.5,252.9z"/>
	</g>
</g>
<g>
	<g>
		<path class="st4" d="M111.9,256.8l0.7,0.5l-0.9,1.4l0,0c1.4-0.3,2.9-0.2,3.8,0.5c1.4,1,1.5,2.2,1,3.5c1.8-0.3,3.2-0.3,4.2,0.4
			c1.7,1.3,1.7,3,0.1,5.1l-4.1,5.4l-0.8-0.6l4-5.3c1.3-1.8,1.4-3.1,0.1-4.1c-0.8-0.6-2-0.7-3.7-0.3l-4.8,6.4l-0.8-0.6l4-5.3
			c1.3-1.8,1.4-3.1,0.1-4.1c-0.8-0.6-2-0.7-3.7-0.3l-4.8,6.4l-0.8-0.6L111.9,256.8z"/>
	</g>
</g>
<g>
	<g>
		<path class="st4" d="M128.1,276.6c0-3.5,2.2-5.6,4.7-5.6s4.7,2,4.7,5.6c0,3.5-2.2,5.5-4.7,5.5S128.1,280.1,128.1,276.6z
			 M136.5,276.6c0-2.8-1.6-4.7-3.7-4.7s-3.7,1.9-3.7,4.7s1.6,4.7,3.7,4.7S136.5,279.4,136.5,276.6z"/>
	</g>
</g>
<g>
	<g>
		<path class="st4" d="M149.1,270.1h1v11.7h0l5.2-6.4h1.1l-3.4,4.2l4,6.4h-1.1l-3.5-5.7l-2.4,2.8v2.9h-1L149.1,270.1L149.1,270.1z"
			/>
	</g>
</g>
<g>
	<g>
		<path class="st4" d="M165.1,280.6c0-3.5,2.2-5.6,4.7-5.6s4.7,2,4.7,5.6c0,3.5-2.2,5.5-4.7,5.5S165.1,284.1,165.1,280.6z
			 M173.6,280.6c0-2.8-1.6-4.7-3.7-4.7s-3.7,1.9-3.7,4.7s1.6,4.7,3.7,4.7C172,285.3,173.6,283.4,173.6,280.6z"/>
	</g>
</g>
<g>
	<g>
		<path class="st4" d="M208.8,270.6l0.2-1c1.7-0.1,3.5-0.9,5-2.3c2-1.9,2.5-3.8,1.5-5c-1.1-1.2-2.5-0.6-4.2,0.2l-2.6,1.2
			c-1.5,0.7-3.5,1.5-4.9,0.1c-1.3-1.4-0.6-3.9,1.6-5.9c1.6-1.5,3.3-2.1,4.7-2.2l-0.1,0.9c-1.3,0.1-2.7,0.7-4,1.9
			c-1.7,1.6-2.2,3.4-1.3,4.4c1,1.1,2.7,0.3,4-0.2l2.6-1.2c1.9-0.9,3.7-1.5,5.1,0s0.8,4.1-1.8,6.5
			C212.6,269.8,210.6,270.5,208.8,270.6z"/>
	</g>
</g>
<g>
	<g>
		<path class="st4" d="M225.8,256.9c-1.4-1.9-0.3-4,3.2-7.2c-0.9-1.3-2.3-2.5-4-1.3c-1.2,0.8-1.8,2.1-2,3l-0.8-0.3
			c0.3-0.9,1-2.4,2.4-3.4c2-1.5,3.8-0.5,5.1,1.4l3.9,5.5l-0.7,0.5l-0.9-1.1l0,0c-0.4,1.3-1,2.7-2.1,3.5
			C228.6,258.4,226.9,258.5,225.8,256.9z M231.5,253.2l-2.1-2.9c-3.2,2.9-3.9,4.6-2.9,6c0.9,1.2,2,1.1,3,0.4
			C230.6,255.9,231.1,254.9,231.5,253.2z"/>
	</g>
</g>
<g>
	<g>
		<path class="st4" d="M243.8,239.7l-6.4-2.4l-0.6,1.5l-0.7-0.3l0.5-1.6l-2.8-1.2l0.3-0.8l2.9,1.1l1.1-2.9l0.8,0.3l-1.1,2.9l6.4,2.4
			c1.3,0.5,2.2,0.5,2.7-0.9c0.1-0.4,0.2-0.9,0.1-1.4l0.8,0c0,0.6-0.1,1.3-0.2,1.8C247,240.2,245.6,240.4,243.8,239.7z"/>
	</g>
</g>
<g>
	<g>
		<path class="st4" d="M249.4,225.9c-3.5-0.5-5.2-3-4.8-5.5c0.4-2.5,2.7-4.4,6.2-3.9c3.5,0.5,5.1,3,4.8,5.5
			C255.2,224.6,252.9,226.4,249.4,225.9z M250.7,217.5c-2.8-0.4-4.9,0.9-5.2,3c-0.3,2.1,1.4,4,4.1,4.4s4.9-0.9,5.2-3
			C255.1,219.8,253.5,218,250.7,217.5z"/>
	</g>
</g>
<g>
	<g>
		<path class="st5" d="M72.5,208.6c-8.1-17.9-9.3-38.5-2.5-57.1c3.9-10.7,10.1-21.2,22.5-22.8c11.8-1.6,23.2,4,33.5,9
			c0.6,0.3,2.5,0,2.8-0.8c4.3-11.1,9-22.2,14.8-32.7c1-1.9,2.2-3.8,3.5-5.6c3-4,5.4-5.9,10.4-7.3c7.4-2,15,0.1,22.3,1.9
			c11.5,2.9,23.1,6.8,33.5,12.7c8.4,4.8,16.2,11.6,17.7,21.6c0.1,0.5,3-0.1,2.9-0.8c-1.7-11.6-11.8-19-21.7-23.9
			c-13.2-6.6-27.9-11.2-42.5-13.4c-9.6-1.4-18.3,0.5-24.5,8.4c-4.1,5.2-6.9,11.5-9.8,17.5c-3.4,7.2-6.5,14.5-9.4,21.9
			c0.9-0.2,1.9-0.5,2.8-0.8c-17.1-8.2-41.7-16.8-55.1,2.4c-14,20.1-13.8,48.6-4,70.3C69.9,210.1,72.7,209.1,72.5,208.6L72.5,208.6z"
			/>
	</g>
</g>
<g>
	<g>
		<path class="st6" d="M71.8,262.6c-9.3-0.2-16.2,6.9-23,12.3c-3.2,2.5-15.1,11.4-8.1,15.2c7,3.8,17.7,1.6,24.1-2.3
			c7-4.3,11.4-11.5,12.6-19.6c0.2-1.4-2.7-1.1-2.9,0.2C72.4,282.1,60,292.2,46,289.3c-9.9-2,1.8-10.8,5.4-13.6
			c5.5-4.4,11.9-11.1,19.4-11C72.1,264.8,73.7,262.7,71.8,262.6L71.8,262.6z"/>
	</g>
</g>
<g>
	<g>
		<path class="st6" d="M277.5,213.1c9.2-2.2,18.8-3.8,28.2-2.1c3.2,0.6,6.4,1.5,9.4,2.9c1.7,0.8,3.5,1.6,4.9,2.8
			c3.3,2.6,2.8,3.7-0.8,6.2c-7,4.7-18.6,5.4-26.7,4.4c-7.4-0.9-14-4.4-19.2-9.6c-0.6-0.5-3.2,0.5-2.7,1c7.1,7,16,10.2,25.9,10.1
			c8.8,0,19.6-1.6,27-6.9c7.7-5.4-11-11.2-14.6-11.9c-10.6-2.1-21.3-0.3-31.7,2.1C275.5,212.6,275.7,213.5,277.5,213.1L277.5,213.1z
			"/>
	</g>
</g>
<g>
	<g>
		<path class="st6" d="M66.6,272c-5.4,2.1-10.5,5-15.2,8.5c0.8,0.1,1.5,0.1,2.3,0.2c2.6-2.1,5.2-4.1,7.8-6.2c1.2-1-1.7-0.7-2.3-0.2
			c-2.6,2.1-5.2,4.1-7.8,6.2c-1.2,1,1.7,0.7,2.3,0.2c4.3-3.3,8.9-5.9,14-7.9C69.6,272.1,67.8,271.5,66.6,272L66.6,272z"/>
	</g>
</g>
<g>
	<g>
		<path class="st6" d="M65.4,270.1c-1.9,0.3-3.7,0.7-5.4,1.8c-1.4,0.9-2.7,3.7-4.1,4.3c0.6,0,1.3,0,1.9,0.1c0-0.1,0-0.3,0-0.4
			c-0.8,0.3-1.6,0.7-2.3,1c0.1,0,0.2,0,0.3,0.1c-0.1-0.4-0.2-0.7-0.3-1.1c-3.8,4-9.8,4.5-13.6,8.4c-2.1,2.2-2.2,4.9,1.2,5.9
			c4.6,1.3,10.7-2.7,14.4-4.9c4-2.3,9-4.9,8.9-10.1c0-0.9-2-0.4-2.4-0.1c-3.4,2.5-6.5,5.3-9.3,8.5c0.8-0.1,1.6-0.3,2.3-0.5
			c-2.8-1.3,4.5-10.2,5.4-11.2c-0.9,0-1.8-0.1-2.6-0.1c-0.8,3.5-2.2,6.5-4.5,9.2c0.9,0,1.8,0.1,2.6,0.1c0.1-2.9,0.9-5.1,3-7.1
			c-0.8-0.1-1.7-0.2-2.5-0.3c-1.5,2.3-3.1,4.2-5.2,5.9c0.9,0,1.8-0.1,2.6-0.1c0.3-1,0.6-2,1-3c-0.9,0-1.9,0.1-2.8,0.1
			c-0.9,2.8-2.2,5-4.2,7.2c0.9,0,1.8-0.1,2.6-0.1c0.1-1.1,0.1-2.2,0.1-3.4c-0.9,0-1.9,0.1-2.8,0.1c-0.2,1.2-0.5,2.4-1.1,3.5
			c-4.1-0.5-4.6-2-1.5-4.5c1.4-1.5,3.4-2.8,5-4c3.3-2.6,6.6-5.5,10.3-7.5c3.6-2,8.6-3.7,10.9,1.3c0.9,1.9,0.7,4.7-0.3,6.5
			c-2.2,3.9-9.9,6.3-13.7,8.3c0.8,0,1.6,0.1,2.4,0.1c-1.9-4.9-1.2-9.9,2.1-14c-0.9,0.1-1.9,0.2-2.8,0.3c1.1,2.8,1.1,5.2-0.4,8
			c0.9,0,1.8,0.1,2.7,0.1c1.1-2.6,2.6-4.7,4.5-6.8c-0.9,0-1.8,0.1-2.6,0.1c0.7,2.2,0.6,4.1-0.2,6.2c-0.4,1,2.5,0.7,2.9-0.3
			c0.9-2.5,1-4.2,0.2-6.7c-0.3-1-2.1-0.4-2.6,0.1c-2.1,2.2-3.7,4.4-4.9,7.2c-0.6,1.4,2.2,1,2.7,0.1c1.6-3,1.9-5.7,0.6-8.9
			c-0.4-1.1-2.3-0.3-2.8,0.3c-3.5,4.4-4.3,9.7-2.2,14.9c0.4,0.9,1.8,0.4,2.4,0.1c7-3.7,19.4-7.6,14.5-17.9
			c-3.3-6.9-12.8-1.8-17.2,1.1c-4,2.6-7.6,5.7-11.3,8.7c-2.2,1.8-6.5,4.8-4.8,8.3c1.1,2.2,3.9,2.3,5.9,1.4c2.8-1.2,3.6-3.7,4.2-6.5
			c0.2-1.2-2.5-0.6-2.8,0.1c-0.8,1.6-0.9,2.5-0.3,4.3c0.3,0.9,2.1,0.4,2.6-0.1c2.2-2.4,3.7-5,4.7-8c0.4-1.2-2.4-0.4-2.8,0.1
			c-1,1.4-1.2,2.3-1.1,3.9c0.1,1.1,2.2,0.2,2.6-0.1c2.2-1.9,4-3.9,5.6-6.3c0.8-1.2-2-0.8-2.5-0.3c-2.3,2.3-3.4,4.7-3.5,8
			c0,1.2,2.2,0.7,2.6,0.1c2.6-3,4.2-6.2,5.1-10.1c0.3-1.2-2.2-0.6-2.6-0.1c-1.7,2.1-9.8,11.1-5.3,13.3c0.6,0.3,1.8,0.1,2.3-0.5
			c2.6-3.1,5.5-5.7,8.8-8.1c-0.8,0-1.6-0.1-2.4-0.1c0.1,4.7-5.9,7.3-9.3,9.2c-1.7,0.9-3.8,2.3-5.7,2.6c-1.9,1.1-3.6,0.4-5-2
			c0.7-0.9,1.6-1.7,2.6-2.3c3.9-2.7,8.5-3.5,11.9-7.1c0.4-0.4,0.4-1-0.3-1.1c-0.1,0-0.2,0-0.3-0.1c-0.8-0.2-2,0.1-2.3,1
			c-0.2,0.7-0.2,0.7,0.2,1.3c0.4,0.5,1.5,0.3,1.9,0.1c3.4-1.5,3.1-5,7.9-5.6C66.4,271.7,67.4,269.9,65.4,270.1L65.4,270.1z"/>
	</g>
</g>
<g>
	<g>
		<path class="st6" d="M58.3,276.4c-1,0.3-1.9,0.6-2.9,0.9c0.5,0.2,1,0.5,1.5,0.7c1.9-2.3,3.9-4.5,6-6.6c1.2-1.2-1.5-0.9-2-0.6
			c-2,1.1-4,2.2-6,3.3c0.7,0.1,1.5,0.3,2.2,0.4c1.1-1.7,2.2-3.4,3.2-5.1c0.7-1.1-2.2-0.6-2.7,0c-3.5,4.4-7.3,8.5-11.5,12.3
			c-1.2,1.2,1.6,1,2.3,0.4c1-0.9,2.1-1.7,3.1-2.6c-0.8,0.1-1.7,0.2-2.5,0.4c0.7,0.7,1.9,0.8,2.5,1.4c1.6,1.5,2.1,4.8,2.8,6.8
			c0.3,0.9,2.8,0.2,2.9-0.6c0.3-2.2,1.1-3.8,2.8-5.3c-0.9,0.1-1.7,0.1-2.6,0.2c0.6,1.1,1.1,2.2,1.6,3.3c0.5,0.9,2.6,0.3,2.9-0.6
			c1.3-4.6,2.7-9.1,4-13.7c-1,0.2-1.9,0.4-2.9,0.6c0.7,2.5,1.3,5,2,7.4c0.3,1,2.9,0.2,2.9-0.8c-0.1-4.4-0.2-8.7-0.2-13
			c-0.9,0.3-1.9,0.6-2.8,0.9c2,2.9,4.1,5.8,6.1,8.7c0.5,0.7,2.7,0,2.8-0.8c0.3-2,0.2-3.5-0.4-5.5c-0.3-1-2.4-0.1-2.8,0.4
			c-1.9,2.6-3.3,5.3-4.5,8.3c1-0.1,1.9-0.3,2.9-0.4c1.1-3.5,1.4-7.6-3.1-8.3c-0.9-0.1-3.4,1.3-1.8,1.5c3.7,0.6,2.7,4.6,1.9,7.1
			c-0.3,1,2.6,0.5,2.9-0.4c1.1-2.9,2.5-5.4,4.3-7.9c-0.9,0.1-1.9,0.2-2.8,0.4c0.6,1.6,0.8,3.4,0.4,5.1c0.9-0.2,1.9-0.5,2.8-0.8
			c-2-2.9-4.1-5.8-6.1-8.7c-0.5-0.8-2.8,0-2.8,0.9c0.1,4.4,0.2,8.7,0.2,13c1-0.3,1.9-0.5,2.9-0.8c-0.7-2.5-1.3-5-2-7.4
			c-0.3-1-2.7-0.1-2.9,0.6c-1.3,4.6-2.7,9.1-4,13.7c1-0.2,1.9-0.4,2.9-0.6c-0.6-1.1-1.1-2.2-1.6-3.3c-0.4-0.8-2.1-0.3-2.6,0.2
			c-2,1.7-3,3.5-3.4,6.1c1-0.2,1.9-0.4,2.9-0.6c-0.8-2.4-1.6-4.8-2.4-7.3c-0.1-0.3-0.6-0.4-0.9-0.4c-0.7-0.3-1.5-0.6-2.2-0.9
			c-0.6-0.6-1.9-0.1-2.5,0.4c-1,0.9-2.1,1.7-3.1,2.6c0.8,0.1,1.5,0.3,2.3,0.4c4.2-4,8.2-8.2,11.8-12.7c-0.9,0-1.8,0-2.7,0
			c-1.1,1.7-2.2,3.4-3.2,5.1c-0.7,1.2,1.9,0.6,2.2,0.4c2-1.1,4-2.2,6-3.3c-0.7-0.2-1.4-0.4-2-0.6c-2.3,2.2-4.4,4.6-6.4,7
			c-0.7,0.8,1.2,0.8,1.5,0.7c1-0.3,1.9-0.6,2.9-0.9C60.3,277.3,60,275.9,58.3,276.4L58.3,276.4z"/>
	</g>
</g>
<g>
	<g>
		<path class="st6" d="M266.8,118.9c-0.6,1.7-1.3,3.3-2,5c1-0.2,1.9-0.4,2.9-0.5c-0.8-1.8-0.9-3.4-0.4-5.3c-0.7,0.4-1.3,0.7-2,1.1
			c0.2,0.4,0.5,0.8,0.7,1.2c0.9-0.3,1.7-0.6,2.6-0.9c1.6,0.1,2.3,0.9,2.3,2.4c-0.5-0.8,0.1-0.6,2,0.5c0.9-0.3,1.7-0.6,2.6-0.9
			c2.3-4.3,3.6-5.3,3.9-3c0.3,1,0.3,2.1,0.1,3.2c-1.9,1.4-2.1-1.2-1.2-2.4c0.3-1.5,1.4-2,3.1-1.2c2.3-0.8,3.1-0.1,2.3,2
			c-0.5,0.8-0.9,1.6-1.4,2.4c-4.2,3-6.4,2.7-6.5-0.9c-1-1.5-0.7-2.7,0.9-3.5c0.7-1.4,1.8-1.8,3.2-1.1c4.2,2.9-8.4,6.3,1.3,2.2
			c2.2-2.2,4.1-2.2,5.5,0.1c0.4,0.8,0.7,1.5,1.1,2.3c-0.5,0.8-0.9,1.6-1.4,2.5c-0.6-2.4,0.6-2.9,3.7-1.6c0.6,0,1.3,0.1,1.9,0.1
			c2.6-2.1,4-2,4.2,0.2c1.9-1.4,3.9-1.7,5.9-1c0.5-0.4,1.1-0.7,1.6-1c-0.1-0.2-0.2-0.3-0.4-0.5c-0.3,0.4-0.6,0.7-0.9,1.1
			c-1.6,2.6-3,2.9-4,1c-0.5-0.6-2.8-0.2-2.8,0.8c0.2,9.6-13.2,5.1-17,1.5c-0.6,0.5-1.2,1-1.9,1.5c3.2,0.2,32.1,1,28.9-6.1
			c-0.7-1.5-3.3-1.6-4.5-1.8c-3.2-0.6-6.4-1.2-9.6-1.7c-7.6-1.2-15.2-1.8-22.9-1.2c0,0.6,0,1.1,0,1.7c6.3-1.8,12.7-2.9,19.2-3.3
			c6.2-0.3,16.8-1.2,18.1,6.9c0.8-0.4,1.5-0.8,2.3-1.2c-7.3-1.4-14.7-2.9-22-4.3c-1-0.2-3.5,1.2-1.7,1.7c4.6,1.4,9.1,1.4,13.8,0.1
			c0.8-0.2,1.9-1.2,0.6-1.7c-4-1.3-7.8-1.7-12-1.2c-0.7,0.1-2.6,1.5-1,1.8c3.3,0.5,6.7,1,10,1.5c2.4,0.4,8.9,0.3,10.7,2.1
			c2.2,2.2,0,2.9-1.9,3.3c-1.5,0.3-3,0.6-4.5,1c-2.5,0.5-10.3,3.4-12.4,1.9c-0.9-0.6-3.5,0.6-2.3,1.5c3,2.2,8.3-0.3,11.5-1
			c3.3-0.7,6.6-1.4,9.8-2.1c1.1-0.3,2.9-0.5,3.7-1.5c5-5.9-20.4-8-23-8.4c-0.4,0.6-0.7,1.2-1,1.8c3.7-0.4,7.1,0,10.6,1.2
			c0.2-0.6,0.4-1.1,0.6-1.7c-4,1.1-7.7,1-11.6-0.2c-0.6,0.6-1.2,1.1-1.7,1.7c7.3,1.4,14.7,2.9,22,4.3c0.7,0.1,2.5-0.2,2.3-1.2
			c-1.2-7.1-8.9-7.9-14.9-8c-8.7-0.1-17.4,1.2-25.8,3.6c-1.4,0.4-1.7,1.9,0,1.7c9.9-0.7,19.6,0.7,29.3,2.4c1.2,0.2,2.5,0.5,3.7,0.7
			c-0.1,0.9-0.2,1.8-0.3,2.6c-0.9,1-7.2,1.2-8.8,1.3c-4.8,0.5-9.6,0.4-14.4,0.1c-0.5,0-2.7,0.7-1.9,1.5c3.9,3.7,9,5.5,14.4,4.6
			c4-0.7,8.4-3.1,8.3-7.6c-0.9,0.2-1.9,0.5-2.8,0.8c2.5,2.9,7.9,5,10.5,0.8c2.4-3.7-2.1-5.5-5-4.5c-0.4,0.1-1,0.6-0.9,1.1
			c0.5,1.5,1.5,1.7,2.9,1.5c0.6-0.1,1.5-0.4,1.6-1c1.9-7.6-12.7-0.1-7.3,3.3c1.6,1,4.6-0.7,4.1-2.7c-0.9-3-5.6-1.4-7.1-0.2
			c-1.9,1.5-3.4,4.9-0.1,5.6c2.9,0.7,4.7-2.4,4.5-4.8c-0.6-9.3-13.8-4.7-9.8,1.1c0.4,0.5,1.5,0.3,1.9,0.1c2-0.9,3.3-3.1,1.6-5.1
			c-1.5-1.8-4.6-1.2-6.4-0.2c-4.6,2.7-3.3,11.2,2.3,7.8c2.4-1.5,2.5-4.7,1.3-7c-1.8-3.6-6.1-4.8-9.8-3.7c-2.4,0.7-5.3,2.7-5.7,5.4
			c-0.5,2.9,1.9,4.5,4.5,4.1c5.6-0.7,6.7-10.1,1-10.9c-6.2-0.8-12.4,10.3-3.6,11.6c4.8,0.7,12.8-4.3,9.8-10c-3.6-6.7-12,2.4-12,7
			c0,2.8,2.2,3.8,4.7,3c3.4-1.1,4.5-5.9,3.3-9c-3.2-7.9-14.6,3.6-9,5.9c0.7,0.3,2.5,0.1,2.6-0.9c0.3-3.7-4.2-5.9-6.9-3.1
			c-2.4,2.5-0.3,7,3.3,5.6c3.9-1.6,0.8-8-2.4-8.7c-3.2-0.7-7.2,2.9-3.5,5.1c0.6,0.4,2.5,0,2.6-0.9c0.1-1.9-0.7-2.5-2.5-2.7
			c-0.7-0.1-1.8,0.3-2,1.1c-0.5,2.2-0.4,3.7,0.4,5.8c0.5,1.2,2.6,0.3,2.9-0.5c0.6-1.7,1.3-3.3,2-5
			C270.1,117.5,267.2,117.9,266.8,118.9L266.8,118.9z"/>
	</g>
</g>
<g>
	<g>
		<path class="st7" d="M269.1,121.9c9.2,1.7,18.5,1.4,27.6-1.1c1.8-0.5,1.3-2.5-0.5-2c-8.6,2.3-17.3,2.6-26,1
			C268.7,119.5,267.2,121.6,269.1,121.9L269.1,121.9z"/>
	</g>
</g>
<g>
	<g>
		<path class="st7" d="M65.5,270.8c-4.4,4.7-9.8,8.2-16,10.2c-1.7,0.5-1.4,1.8,0.3,1.2c7.1-2.3,13.2-6.1,18.3-11.5
			C69,269.9,66.1,270.2,65.5,270.8L65.5,270.8z"/>
	</g>
</g>
<g>
	<g>
		<path class="st7" d="M285.1,119.9c0.8-2.5,2.1-4.7,4-6.5c0.5-0.5-0.4-0.5-0.7-0.5c-0.6,0-1.5,0.2-1.9,0.7c-1.9,2-3.3,4.3-4.2,6.9
			C282.1,120.9,284.9,120.6,285.1,119.9L285.1,119.9z"/>
	</g>
</g>
<g>
	<g>
		<path class="st7" d="M277,119.9c0.2-2.5,1.4-4.8,3.6-6c0.5-0.2,0.8-0.7,0.3-1c-0.5-0.3-1.6,0-2,0.3c-2.7,1.5-4.5,4.1-4.8,7.2
			C274,121.4,276.9,120.8,277,119.9L277,119.9z"/>
	</g>
</g>
<g>
	<g>
		<path class="st7" d="M287.3,123.4c1.5,0.7,3.1,1.4,4.6,2.1c0.6,0.3,1.5,0.1,2-0.3c0.4-0.2,0.9-0.8,0.3-1.1
			c-1.5-0.7-3.1-1.4-4.6-2.1c-0.6-0.3-1.5-0.1-2,0.3C287.2,122.5,286.7,123.1,287.3,123.4L287.3,123.4z"/>
	</g>
</g>
<g>
	<g>
		<path class="st7" d="M276.6,124.3c1.3,0.7,2.7,1.3,4,2c0.7,0.3,1.5,0.3,2.1-0.2c0.4-0.3,0.8-1.1,0.2-1.5c-1.3-0.7-2.7-1.3-4-2
			c-0.7-0.3-1.5-0.3-2.1,0.2C276.3,123.2,275.9,124,276.6,124.3L276.6,124.3z"/>
	</g>
</g>
<g>
	<g>
		<path class="st7" d="M61.8,274.5c-1.3-1.8-3.3-2.9-5.5-3.1c-0.7-0.1-1.6,0.2-1.9,0.9c-0.3,0.7,0.3,1.2,0.9,1.3
			c1.6,0.2,2.9,1,3.9,2.3C60,276.9,62.7,275.7,61.8,274.5L61.8,274.5z"/>
	</g>
</g>
<g>
	<g>
		<path class="st7" d="M57.2,280.8c-0.3,2.2-0.6,4.5-0.8,6.7c-0.1,0.8,2.8,0.2,2.9-0.5c0.3-2.2,0.6-4.5,0.8-6.7
			C60.1,279.5,57.2,280.1,57.2,280.8L57.2,280.8z"/>
	</g>
</g>
<g>
	<g>
		<path class="st7" d="M62.5,273.1c0.9,1.3,1.8,2.7,2.7,4c0.6,0.9,3.4-0.1,2.7-1.2c-0.9-1.3-1.8-2.7-2.7-4
			C64.6,271,61.8,272,62.5,273.1L62.5,273.1z"/>
	</g>
</g>
</svg>
