<?xml version="1.0" encoding="utf-8"?>
<!-- Generator: Adobe Illustrator 23.0.4, SVG Export Plug-In . SVG Version: 6.00 Build 0)  -->
<svg version="1.1" id="Layer_1" xmlns="http://www.w3.org/2000/svg" xmlns:xlink="http://www.w3.org/1999/xlink" x="0px" y="0px"
	 viewBox="0 0 612 792" style="enable-background:new 0 0 612 792;" xml:space="preserve">
<style type="text/css">
	.st0{fill:#F5F2AB;}
	.st1{fill:#D676AB;}
	.st2{font-family:'Herculanum';}
	.st3{font-size:60px;}
	.st4{fill:#AE88BA;}
	.st5{fill:#D695BD;}
	.st6{fill:#4FAA55;}
	.st7{fill:#4C6A46;}
</style>
<path class="st0" d="M409.23,290.55c-3.6-1.19-5.63-3.21-7.69-6.32c-0.54-0.82-0.79-1.62-0.83-2.39c-1.97,0.33-4.09,0.35-6.25-0.01
	c-3.52-0.6-5.04-6.11-2.21-8.36c0.4-0.32,1-1.12,1.55-1.7c-0.01,0-0.01,0-0.02-0.01c-1.68-0.28-3.05-1.94-3.49-3.49
	c-1.35-4.73,0.37-8.23,4.02-10.71c0.75-1.35,2.14-2.33,4.15-2.33c0.02,0,0.04,0,0.07,0c-20-29.77-53.98-49.37-92.54-49.37
	c-61.53,0-111.41,49.88-111.41,111.41S244.47,428.68,306,428.68s111.41-49.88,111.41-111.41c0-9.61-1.23-18.93-3.52-27.83
	C412.69,290.55,410.78,291.06,409.23,290.55z"/>
<text transform="matrix(0.8557 0.1313 -0.1517 0.9884 310.9935 331.1)" class="st1 st2 st3">M</text>
<g>
	<g>
		<path class="st4" d="M226.77,348.49l0.69,1.19l-5.8,6.69c-0.73,0.84-1.47,1.69-2.2,2.53l0.04,0.07c1.1-0.21,2.18-0.46,3.27-0.66
			l8.69-1.67l0.69,1.19l-12.35,7.12l-0.47-0.81l8.12-4.68c1-0.58,2.34-1.27,3.4-1.82l-0.04-0.07l-3.3,0.65l-8.85,1.64l-0.42-0.73
			l5.85-6.85l2.21-2.54l-0.04-0.07c-1.01,0.64-2.27,1.45-3.28,2.03l-8.12,4.68l-0.45-0.77L226.77,348.49z"/>
	</g>
</g>
<g>
	<g>
		<path class="st4" d="M241.51,373.4c1.77,2.56,0.72,5.48-1.67,7.13s-5.49,1.62-7.26-0.94c-1.76-2.53-0.7-5.45,1.69-7.1
			C236.66,370.83,239.76,370.87,241.51,373.4z M233.54,378.93c1.4,2.02,3.86,2.38,5.87,0.99c2.01-1.39,2.54-3.83,1.14-5.84
			c-1.4-2.02-3.84-2.35-5.85-0.96C232.69,374.51,232.14,376.91,233.54,378.93z"/>
	</g>
</g>
<g>
	<g>
		<path class="st4" d="M253.86,382.84l0.66,0.49l-0.9,1.38l0.04,0.03c1.41-0.29,2.87-0.23,3.81,0.48c1.36,1.02,1.52,2.21,1.04,3.48
			c1.75-0.34,3.19-0.3,4.16,0.43c1.68,1.26,1.73,2.96,0.1,5.14l-4.07,5.42l-0.78-0.58l3.99-5.32c1.34-1.79,1.38-3.09,0.09-4.07
			c-0.79-0.6-1.99-0.67-3.72-0.31l-4.78,6.38l-0.78-0.58l3.99-5.32c1.34-1.79,1.38-3.09,0.09-4.07c-0.76-0.57-1.99-0.67-3.72-0.31
			l-4.78,6.38l-0.78-0.58L253.86,382.84z"/>
	</g>
</g>
<g>
	<g>
		<path class="st4" d="M270.09,402.61c0-3.53,2.21-5.57,4.74-5.57s4.74,2.03,4.74,5.57c0,3.49-2.2,5.53-4.74,5.53
			S270.09,406.1,270.09,402.61z M278.55,402.61c0-2.78-1.59-4.71-3.72-4.71s-3.72,1.93-3.72,4.71s1.59,4.67,3.72,4.67
			S278.55,405.39,278.55,402.61z"/>
	</g>
</g>
<g>
	<g>
		<path class="st4" d="M291.11,396.07h0.96v11.67h0.05l5.21-6.4h1.12l-3.44,4.18l4.02,6.39h-1.08l-3.51-5.66l-2.37,2.78v2.88h-0.96
			V396.07z"/>
	</g>
</g>
<g>
	<g>
		<path class="st4" d="M307.14,406.64c0-3.53,2.21-5.57,4.74-5.57s4.74,2.03,4.74,5.57c0,3.49-2.21,5.53-4.74,5.53
			S307.14,410.13,307.14,406.64z M315.61,406.64c0-2.78-1.59-4.71-3.72-4.71c-2.13,0-3.72,1.93-3.72,4.71s1.59,4.67,3.72,4.67
			C314.02,411.31,315.61,409.42,315.61,406.64z"/>
	</g>
</g>
<g>
	<g>
		<path class="st4" d="M350.77,396.65l0.16-1.01c1.68-0.09,3.52-0.85,5.04-2.27c1.99-1.86,2.51-3.81,1.45-4.96
			c-1.12-1.2-2.54-0.59-4.22,0.18l-2.59,1.19c-1.48,0.69-3.54,1.5-4.87,0.08c-1.3-1.39-0.59-3.88,1.58-5.9
			c1.57-1.47,3.33-2.12,4.71-2.24l-0.11,0.94c-1.32,0.12-2.72,0.69-4.03,1.91c-1.72,1.61-2.25,3.36-1.28,4.4
			c1.04,1.12,2.74,0.33,3.98-0.25l2.58-1.19c1.91-0.88,3.74-1.49,5.11-0.02c1.37,1.47,0.77,4.12-1.76,6.48
			C354.61,395.76,352.59,396.54,350.77,396.65z"/>
	</g>
</g>
<g>
	<g>
		<path class="st4" d="M367.79,382.85c-1.36-1.91-0.28-4.05,3.25-7.2c-0.92-1.34-2.29-2.5-3.98-1.3c-1.16,0.83-1.76,2.11-2.02,2.96
			l-0.78-0.33c0.3-0.86,1.01-2.4,2.41-3.4c2.04-1.45,3.78-0.46,5.09,1.38l3.91,5.5l-0.67,0.48l-0.88-1.06l-0.04,0.03
			c-0.37,1.33-0.98,2.7-2.11,3.51C370.6,384.4,368.94,384.46,367.79,382.85z M373.55,379.18l-2.08-2.93
			c-3.25,2.92-3.87,4.6-2.89,5.98c0.88,1.24,2.05,1.12,3.04,0.41C372.6,381.94,373.13,380.85,373.55,379.18z"/>
	</g>
</g>
<g>
	<g>
		<path class="st4" d="M385.8,365.69l-6.37-2.38l-0.58,1.55l-0.71-0.26l0.5-1.6l-2.82-1.18l0.29-0.78l2.87,1.07l1.07-2.87l0.79,0.3
			l-1.07,2.87l6.44,2.4c1.26,0.47,2.23,0.47,2.74-0.89c0.14-0.37,0.17-0.94,0.15-1.36l0.83,0.04c-0.01,0.65-0.08,1.34-0.23,1.75
			C388.99,366.25,387.57,366.35,385.8,365.69z"/>
	</g>
</g>
<g>
	<g>
		<path class="st4" d="M391.43,351.92c-3.49-0.53-5.17-3.01-4.79-5.52c0.38-2.51,2.72-4.39,6.21-3.86c3.45,0.52,5.13,3.01,4.75,5.52
			C397.22,350.57,394.88,352.44,391.43,351.92z M392.7,343.55c-2.75-0.42-4.89,0.87-5.21,2.98c-0.32,2.11,1.35,3.97,4.1,4.39
			c2.75,0.42,4.85-0.87,5.17-2.98C397.08,345.82,395.45,343.97,392.7,343.55z"/>
	</g>
</g>
<g>
	<g>
	</g>
</g>
<g>
	<g>
		<path class="st5" d="M214.49,334.6c-8.1-17.9-9.32-38.54-2.51-57.07c3.95-10.74,10.07-21.19,22.47-22.83
			c11.82-1.56,23.19,4.01,33.54,8.96c0.59,0.28,2.53-0.05,2.79-0.75c4.28-11.13,9-22.23,14.76-32.69c1.05-1.92,2.18-3.8,3.47-5.57
			c2.95-4.02,5.4-5.95,10.37-7.3c7.39-2,14.97,0.11,22.28,1.93c11.49,2.87,23.15,6.8,33.47,12.69c8.37,4.78,16.23,11.61,17.67,21.62
			c0.08,0.54,3-0.05,2.9-0.78c-1.67-11.61-11.84-18.98-21.67-23.86c-13.18-6.55-27.93-11.2-42.48-13.35
			c-9.63-1.43-18.29,0.53-24.52,8.41c-4.13,5.22-6.91,11.52-9.75,17.49c-3.41,7.18-6.5,14.5-9.36,21.91
			c0.93-0.25,1.86-0.5,2.79-0.75c-17.12-8.19-41.72-16.79-55.13,2.39c-14.04,20.1-13.81,48.63-4,70.3
			C211.9,336.06,214.7,335.08,214.49,334.6L214.49,334.6z"/>
	</g>
</g>
<g>
	<g>
		<path class="st6" d="M213.77,388.65c-9.3-0.21-16.21,6.91-23.04,12.34c-3.16,2.51-15.13,11.36-8.05,15.2
			c7.02,3.81,17.66,1.61,24.08-2.34c7.01-4.31,11.43-11.54,12.65-19.6c0.22-1.44-2.74-1.06-2.93,0.23
			c-2.07,13.66-14.48,23.68-28.47,20.85c-9.87-2,1.82-10.79,5.4-13.64c5.49-4.36,11.87-11.12,19.36-10.95
			C214.14,390.76,215.72,388.69,213.77,388.65L213.77,388.65z"/>
	</g>
</g>
<g>
	<g>
		<path class="st6" d="M419.46,339.13c9.21-2.21,18.78-3.82,28.23-2.13c3.24,0.58,6.38,1.54,9.37,2.91c1.7,0.78,3.46,1.62,4.94,2.78
			c3.33,2.6,2.8,3.69-0.83,6.16c-6.99,4.73-18.57,5.39-26.7,4.41c-7.4-0.9-13.97-4.4-19.22-9.6c-0.56-0.55-3.23,0.51-2.72,1.01
			c7.09,7.02,16,10.16,25.9,10.13c8.81-0.03,19.65-1.65,27.03-6.89c7.66-5.44-10.95-11.17-14.58-11.89
			c-10.58-2.12-21.33-0.33-31.67,2.15C417.49,338.56,417.74,339.54,419.46,339.13L419.46,339.13z"/>
	</g>
</g>
<g>
	<g>
		<path class="st6" d="M208.65,397.96c-5.44,2.15-10.52,4.97-15.18,8.51c0.75,0.08,1.51,0.15,2.26,0.23
			c2.61-2.06,5.22-4.12,7.83-6.18c1.2-0.95-1.67-0.7-2.26-0.23c-2.61,2.06-5.22,4.12-7.83,6.18c-1.21,0.96,1.68,0.67,2.26,0.23
			c4.31-3.26,8.95-5.89,13.98-7.88C211.61,398.07,209.84,397.49,208.65,397.96L208.65,397.96z"/>
	</g>
</g>
<g>
	<g>
		<path class="st6" d="M207.35,396.15c-1.94,0.26-3.68,0.72-5.35,1.79c-1.43,0.92-2.74,3.69-4.08,4.27
			c0.64,0.02,1.29,0.05,1.93,0.07c0-0.15,0.01-0.3,0.01-0.44c-0.78,0.33-1.55,0.66-2.33,1c0.11,0.02,0.22,0.04,0.32,0.07
			c-0.1-0.37-0.2-0.74-0.3-1.11c-3.78,4.04-9.83,4.5-13.64,8.44c-2.1,2.17-2.25,4.94,1.16,5.86c4.63,1.26,10.67-2.68,14.43-4.85
			c3.99-2.31,9.02-4.89,8.88-10.1c-0.02-0.91-2.02-0.35-2.36-0.1c-3.45,2.49-6.5,5.27-9.27,8.51c0.77-0.15,1.55-0.3,2.32-0.45
			c-2.77-1.33,4.53-10.24,5.37-11.24c-0.88-0.04-1.75-0.08-2.63-0.12c-0.8,3.5-2.22,6.46-4.54,9.21c0.88,0.04,1.75,0.08,2.63,0.12
			c0.07-2.87,0.88-5.06,2.97-7.15c-0.84-0.11-1.69-0.23-2.53-0.34c-1.46,2.28-3.12,4.17-5.19,5.9c0.87-0.04,1.75-0.07,2.62-0.11
			c0.32-1.01,0.64-2.02,0.96-3.03c-0.94,0.03-1.87,0.07-2.81,0.1c-0.94,2.82-2.18,4.96-4.18,7.16c0.87-0.04,1.75-0.07,2.62-0.11
			c0.05-1.12,0.1-2.24,0.14-3.35c-0.94,0.03-1.87,0.07-2.81,0.1c-0.17,1.21-0.52,2.37-1.05,3.48c-4.12-0.45-4.62-1.96-1.5-4.52
			c1.41-1.52,3.4-2.75,5.02-4.04c3.31-2.64,6.56-5.47,10.27-7.53c3.65-2.02,8.62-3.73,10.93,1.34c0.86,1.89,0.74,4.73-0.27,6.51
			c-2.2,3.89-9.94,6.32-13.72,8.33c0.79,0.03,1.57,0.06,2.36,0.1c-1.95-4.91-1.24-9.86,2.05-14c-0.94,0.11-1.87,0.22-2.81,0.33
			c1.15,2.82,1.12,5.25-0.4,8.01c0.91,0.04,1.81,0.08,2.72,0.12c1.13-2.58,2.55-4.74,4.53-6.75c-0.87,0.04-1.75,0.07-2.62,0.11
			c0.7,2.2,0.64,4.09-0.17,6.25c-0.39,1.03,2.52,0.69,2.91-0.33c0.93-2.47,0.96-4.19,0.16-6.7c-0.31-0.96-2.14-0.38-2.62,0.11
			c-2.12,2.16-3.68,4.4-4.9,7.19c-0.6,1.37,2.24,0.99,2.72,0.12c1.65-2.99,1.89-5.71,0.58-8.91c-0.44-1.08-2.32-0.29-2.81,0.33
			c-3.48,4.37-4.29,9.7-2.23,14.9c0.35,0.89,1.78,0.4,2.36,0.1c6.97-3.7,19.45-7.61,14.53-17.94c-3.26-6.85-12.77-1.8-17.2,1.11
			c-3.96,2.6-7.6,5.73-11.28,8.69c-2.2,1.77-6.51,4.84-4.77,8.32c1.12,2.25,3.88,2.32,5.93,1.44c2.75-1.18,3.64-3.72,4.18-6.49
			c0.24-1.23-2.47-0.6-2.81,0.1c-0.79,1.62-0.91,2.55-0.33,4.26c0.32,0.94,2.15,0.42,2.62-0.11c2.19-2.4,3.71-4.97,4.74-8.05
			c0.41-1.24-2.43-0.42-2.81,0.1c-0.99,1.36-1.21,2.27-1.14,3.93c0.05,1.07,2.25,0.2,2.62-0.11c2.24-1.88,3.99-3.88,5.56-6.34
			c0.8-1.25-2.04-0.84-2.53-0.34c-2.31,2.32-3.45,4.74-3.52,8.05c-0.03,1.19,2.16,0.67,2.63,0.12c2.56-3.04,4.21-6.23,5.1-10.1
			c0.27-1.19-2.24-0.58-2.63-0.12c-1.73,2.06-9.81,11.1-5.31,13.27c0.65,0.31,1.84,0.11,2.32-0.45c2.62-3.08,5.46-5.73,8.75-8.11
			c-0.79-0.03-1.57-0.06-2.36-0.1c0.13,4.72-5.89,7.34-9.31,9.22c-1.7,0.93-3.79,2.3-5.73,2.61c-1.92,1.1-3.59,0.43-5.02-2.01
			c0.73-0.94,1.6-1.7,2.61-2.28c3.94-2.67,8.52-3.49,11.88-7.08c0.4-0.43,0.36-0.98-0.3-1.11c-0.11-0.02-0.22-0.04-0.32-0.07
			c-0.82-0.17-2.01,0.14-2.33,1c-0.25,0.67-0.21,0.73,0.21,1.28c0.4,0.52,1.46,0.27,1.93,0.07c3.4-1.46,3.06-5.01,7.89-5.65
			C208.43,397.69,209.35,395.89,207.35,396.15L207.35,396.15z"/>
	</g>
</g>
<g>
	<g>
		<path class="st6" d="M200.27,402.42c-0.98,0.31-1.95,0.62-2.93,0.92c0.51,0.23,1.02,0.46,1.53,0.7c1.9-2.33,3.89-4.54,6.04-6.65
			c1.22-1.2-1.5-0.91-2.04-0.61c-2,1.09-3.99,2.19-5.99,3.28c0.74,0.14,1.49,0.27,2.23,0.41c1.08-1.69,2.16-3.37,3.24-5.06
			c0.73-1.14-2.18-0.65-2.69-0.02c-3.54,4.38-7.34,8.49-11.46,12.33c-1.23,1.16,1.65,0.96,2.31,0.42c1.04-0.86,2.08-1.71,3.12-2.57
			c-0.83,0.12-1.67,0.23-2.5,0.35c0.74,0.68,1.88,0.81,2.5,1.37c1.61,1.45,2.12,4.8,2.79,6.84c0.3,0.92,2.78,0.24,2.89-0.58
			c0.31-2.22,1.07-3.81,2.81-5.32c-0.87,0.06-1.74,0.12-2.6,0.18c0.55,1.09,1.1,2.17,1.65,3.26c0.46,0.9,2.65,0.26,2.89-0.58
			c1.34-4.57,2.68-9.15,4.02-13.72c-0.96,0.19-1.93,0.39-2.89,0.58c0.66,2.48,1.32,4.95,1.97,7.43c0.26,0.99,2.92,0.19,2.9-0.78
			c-0.08-4.35-0.17-8.69-0.25-13.04c-0.93,0.31-1.86,0.63-2.8,0.94c2.03,2.91,4.06,5.82,6.08,8.73c0.47,0.67,2.7,0.03,2.79-0.75
			c0.26-2.04,0.18-3.49-0.37-5.52c-0.27-0.98-2.44-0.13-2.79,0.38c-1.85,2.64-3.3,5.34-4.49,8.32c0.96-0.13,1.93-0.26,2.89-0.38
			c1.08-3.46,1.36-7.56-3.05-8.26c-0.88-0.14-3.4,1.26-1.79,1.52c3.7,0.59,2.74,4.59,1.95,7.13c-0.31,1,2.55,0.47,2.89-0.38
			c1.14-2.85,2.54-5.42,4.29-7.92c-0.93,0.13-1.86,0.25-2.79,0.38c0.63,1.65,0.75,3.36,0.37,5.13c0.93-0.25,1.86-0.5,2.79-0.75
			c-2.03-2.91-4.06-5.82-6.08-8.73c-0.53-0.76-2.81,0.05-2.8,0.94c0.08,4.35,0.17,8.69,0.25,13.04c0.97-0.26,1.93-0.52,2.9-0.78
			c-0.66-2.48-1.32-4.95-1.97-7.43c-0.27-1-2.68-0.15-2.89,0.58c-1.34,4.57-2.68,9.15-4.02,13.72c0.96-0.19,1.93-0.39,2.89-0.58
			c-0.55-1.09-1.1-2.17-1.65-3.26c-0.43-0.84-2.08-0.28-2.6,0.18c-2,1.74-3.02,3.49-3.4,6.13c0.96-0.19,1.93-0.39,2.89-0.58
			c-0.79-2.42-1.59-4.84-2.38-7.26c-0.11-0.33-0.58-0.41-0.88-0.4c-0.74-0.3-1.49-0.59-2.23-0.89c-0.62-0.57-1.95-0.11-2.5,0.35
			c-1.04,0.86-2.08,1.71-3.12,2.57c0.77,0.14,1.54,0.28,2.31,0.42c4.25-3.98,8.18-8.2,11.83-12.73c-0.9-0.01-1.79-0.01-2.69-0.02
			c-1.08,1.69-2.16,3.37-3.24,5.06c-0.74,1.16,1.86,0.61,2.23,0.41c2-1.09,3.99-2.19,5.99-3.28c-0.68-0.2-1.36-0.4-2.04-0.61
			c-2.28,2.24-4.4,4.57-6.41,7.05c-0.69,0.84,1.17,0.81,1.53,0.7c0.98-0.31,1.95-0.62,2.93-0.92
			C202.33,403.26,202.01,401.87,200.27,402.42L200.27,402.42z"/>
	</g>
</g>
<g>
	<g>
		<path class="st6" d="M419.82,342.92c-0.65,1.67-1.31,3.34-1.96,5.01c0.97-0.18,1.94-0.36,2.9-0.54c-0.75-1.81-0.88-3.4-0.43-5.31
			c-0.67,0.35-1.33,0.71-2,1.06c0.23,0.39,0.47,0.78,0.7,1.17c0.87-0.3,1.73-0.6,2.6-0.91c1.57,0.15,2.33,0.94,2.3,2.36
			c-0.55-0.82,0.12-0.65,2,0.51c0.87-0.3,1.73-0.6,2.6-0.91c2.33-4.31,3.63-5.3,3.9-2.99c0.26,1.05,0.29,2.13,0.1,3.22
			c-1.87,1.41-2.13-1.22-1.24-2.44c0.33-1.55,1.36-1.97,3.08-1.24c2.34-0.8,3.11-0.14,2.31,1.99c-0.46,0.81-0.92,1.61-1.37,2.42
			c-4.19,2.96-6.35,2.67-6.47-0.85c-1.01-1.52-0.73-2.69,0.85-3.49c0.7-1.44,1.76-1.81,3.18-1.11c4.19,2.93-8.35,6.31,1.29,2.25
			c2.21-2.22,4.06-2.18,5.54,0.13c0.37,0.76,0.74,1.52,1.1,2.28c-0.46,0.82-0.91,1.64-1.37,2.46c-0.65-2.4,0.58-2.94,3.69-1.62
			c0.65,0.03,1.29,0.07,1.94,0.1c2.59-2.09,3.98-2.02,4.16,0.21c1.92-1.39,3.89-1.71,5.93-0.98c0.54-0.35,1.09-0.7,1.63-1.05
			c-0.13-0.17-0.25-0.33-0.38-0.5c-0.28,0.36-0.57,0.72-0.85,1.08c-1.65,2.58-2.99,2.93-4.02,1.05c-0.55-0.64-2.82-0.25-2.79,0.75
			c0.24,9.6-13.25,5.1-17.04,1.49c-0.63,0.5-1.25,1-1.88,1.5c3.18,0.23,32.08,0.97,28.89-6.1c-0.66-1.45-3.27-1.6-4.47-1.83
			c-3.2-0.63-6.42-1.18-9.65-1.68c-7.6-1.17-15.2-1.76-22.89-1.19c0.02,0.57,0.03,1.15,0.05,1.72c6.27-1.77,12.67-2.93,19.18-3.28
			c6.19-0.33,16.75-1.24,18.12,6.85c0.77-0.42,1.54-0.83,2.32-1.25c-7.34-1.43-14.68-2.87-22.02-4.3c-0.96-0.19-3.48,1.19-1.74,1.71
			c4.65,1.41,9.11,1.41,13.79,0.1c0.77-0.22,1.92-1.25,0.65-1.68c-3.97-1.34-7.83-1.71-11.97-1.24c-0.68,0.08-2.64,1.51-1.04,1.76
			c3.33,0.52,6.66,1.03,9.98,1.55c2.38,0.37,8.91,0.33,10.67,2.09c2.22,2.23-0.03,2.92-1.85,3.31c-1.49,0.33-2.98,0.65-4.47,0.98
			c-2.5,0.55-10.26,3.4-12.35,1.88c-0.86-0.62-3.5,0.62-2.28,1.5c3.01,2.18,8.32-0.26,11.5-0.95c3.27-0.72,6.57-1.35,9.83-2.15
			c1.1-0.27,2.87-0.53,3.68-1.49c5.04-5.89-20.37-8.04-22.98-8.44c-0.35,0.59-0.69,1.17-1.04,1.76c3.69-0.42,7.09-0.02,10.58,1.16
			c0.22-0.56,0.43-1.12,0.65-1.68c-3.97,1.11-7.68,1.02-11.61-0.16c-0.58,0.57-1.16,1.14-1.74,1.71c7.34,1.43,14.68,2.87,22.02,4.3
			c0.72,0.14,2.5-0.18,2.32-1.25c-1.2-7.11-8.94-7.94-14.88-8c-8.74-0.1-17.37,1.18-25.77,3.56c-1.35,0.38-1.7,1.85,0.05,1.72
			c9.88-0.74,19.58,0.67,29.28,2.44c1.24,0.23,2.48,0.46,3.71,0.69c-0.1,0.87-0.2,1.75-0.3,2.62c-0.85,1.05-7.21,1.19-8.75,1.34
			c-4.81,0.47-9.61,0.44-14.42,0.09c-0.5-0.04-2.73,0.69-1.88,1.5c3.88,3.69,9.02,5.51,14.37,4.6c3.95-0.67,8.37-3.08,8.26-7.59
			c-0.93,0.25-1.86,0.5-2.79,0.75c2.47,2.86,7.85,5,10.48,0.84c2.35-3.71-2.06-5.49-4.98-4.46c-0.35,0.13-1.01,0.61-0.85,1.08
			c0.5,1.47,1.47,1.73,2.93,1.52c0.61-0.09,1.46-0.37,1.63-1.05c1.93-7.6-12.71-0.14-7.29,3.27c1.65,1.03,4.64-0.74,4.06-2.73
			c-0.89-3.05-5.56-1.39-7.13-0.2c-1.9,1.45-3.38,4.86-0.08,5.62c2.85,0.66,4.68-2.39,4.54-4.8c-0.58-9.31-13.78-4.74-9.78,1.1
			c0.37,0.54,1.48,0.31,1.94,0.1c1.97-0.9,3.26-3.12,1.58-5.12c-1.54-1.84-4.57-1.21-6.36-0.16c-4.56,2.7-3.27,11.24,2.26,7.75
			c2.4-1.51,2.46-4.68,1.3-6.98c-1.83-3.64-6.08-4.82-9.79-3.71c-2.43,0.73-5.28,2.73-5.71,5.43c-0.47,2.93,1.85,4.49,4.55,4.15
			c5.62-0.7,6.71-10.1,0.98-10.87c-6.17-0.83-12.36,10.3-3.63,11.59c4.78,0.71,12.83-4.32,9.81-9.95
			c-3.61-6.73-12.05,2.38-12.04,6.99c0,2.76,2.23,3.81,4.66,3.03c3.42-1.1,4.53-5.85,3.27-8.97c-3.2-7.9-14.64,3.56-8.95,5.93
			c0.68,0.28,2.52,0.12,2.6-0.91c0.28-3.69-4.18-5.93-6.91-3.1c-2.37,2.45-0.26,7.05,3.26,5.6c3.94-1.63,0.77-8.02-2.37-8.7
			c-3.17-0.69-7.25,2.89-3.46,5.15c0.64,0.38,2.55,0.05,2.6-0.91c0.1-1.93-0.73-2.45-2.53-2.67c-0.67-0.08-1.82,0.32-2,1.06
			c-0.53,2.19-0.42,3.7,0.44,5.77c0.48,1.16,2.57,0.32,2.9-0.54c0.65-1.67,1.31-3.34,1.96-5.01
			C423.15,341.54,420.23,341.87,419.82,342.92L419.82,342.92z"/>
	</g>
</g>
<g>
	<g>
		<path class="st7" d="M422.12,345.94c9.25,1.73,18.47,1.35,27.56-1.08c1.79-0.48,1.26-2.5-0.54-2.02
			c-8.61,2.3-17.26,2.6-26.02,0.96C421.67,343.53,420.19,345.58,422.12,345.94L422.12,345.94z"/>
	</g>
</g>
<g>
	<g>
		<path class="st7" d="M207.53,396.78c-4.43,4.73-9.82,8.25-16,10.25c-1.67,0.54-1.38,1.81,0.34,1.25
			c7.07-2.3,13.24-6.12,18.34-11.55C210.96,395.93,208.11,396.16,207.53,396.78L207.53,396.78z"/>
	</g>
</g>
<g>
	<g>
		<path class="st7" d="M438.13,343.85c0.84-2.46,2.15-4.66,3.95-6.55c0.45-0.47-0.4-0.51-0.69-0.5c-0.6,0.03-1.5,0.24-1.94,0.7
			c-1.88,1.98-3.29,4.27-4.18,6.85C435.07,344.92,437.87,344.61,438.13,343.85L438.13,343.85z"/>
	</g>
</g>
<g>
	<g>
		<path class="st7" d="M430,343.91c0.18-2.5,1.43-4.78,3.65-6.02c0.45-0.25,0.8-0.7,0.28-1.05c-0.53-0.34-1.57,0.03-2.05,0.29
			c-2.67,1.49-4.54,4.08-4.77,7.17C427.03,345.39,429.93,344.81,430,343.91L430,343.91z"/>
	</g>
</g>
<g>
	<g>
		<path class="st7" d="M440.34,347.35c1.55,0.71,3.09,1.43,4.64,2.14c0.61,0.28,1.5,0.06,2.05-0.28c0.37-0.23,0.89-0.8,0.26-1.09
			c-1.55-0.71-3.09-1.43-4.64-2.14c-0.61-0.28-1.5-0.06-2.05,0.28C440.23,346.49,439.71,347.06,440.34,347.35L440.34,347.35z"/>
	</g>
</g>
<g>
	<g>
		<path class="st7" d="M429.56,348.32c1.34,0.67,2.69,1.34,4.03,2.01c0.66,0.33,1.47,0.27,2.08-0.18c0.42-0.31,0.83-1.14,0.16-1.47
			c-1.34-0.67-2.69-1.34-4.03-2.01c-0.66-0.33-1.47-0.27-2.08,0.18C429.31,347.16,428.89,347.99,429.56,348.32L429.56,348.32z"/>
	</g>
</g>
<g>
	<g>
		<path class="st7" d="M203.81,400.53c-1.34-1.77-3.31-2.86-5.51-3.12c-0.68-0.08-1.59,0.22-1.88,0.9
			c-0.28,0.66,0.26,1.18,0.89,1.26c1.57,0.19,2.9,1,3.85,2.26C201.98,402.89,204.73,401.74,203.81,400.53L203.81,400.53z"/>
	</g>
</g>
<g>
	<g>
		<path class="st7" d="M199.16,406.79c-0.28,2.23-0.56,4.46-0.83,6.69c-0.1,0.77,2.77,0.24,2.86-0.49c0.28-2.23,0.56-4.46,0.83-6.69
			C202.12,405.52,199.25,406.06,199.16,406.79L199.16,406.79z"/>
	</g>
</g>
<g>
	<g>
		<path class="st7" d="M204.51,399.08c0.9,1.34,1.79,2.68,2.69,4.02c0.62,0.92,3.41-0.09,2.67-1.2c-0.9-1.34-1.79-2.68-2.69-4.02
			C206.57,396.97,203.77,397.98,204.51,399.08L204.51,399.08z"/>
	</g>
</g>
</svg>
