<?xml version="1.0" encoding="utf-8"?>
<!-- Generator: Adobe Illustrator 23.0.4, SVG Export Plug-In . SVG Version: 6.00 Build 0)  -->
<svg version="1.1" id="Layer_1" xmlns="http://www.w3.org/2000/svg" xmlns:xlink="http://www.w3.org/1999/xlink" x="0px" y="0px"
	 viewBox="0 0 332 437" style="enable-background:new 0 0 332 437;" xml:space="preserve">
<style type="text/css">
	.st0{fill:#F5F2AB;}
	.st1{fill:#D676AB;}
	.st2{font-family:'Herculanum';}
	.st3{font-size:60px;}
	.st4{fill:#AE88BA;}
	.st5{fill:#D695BD;}
	.st6{fill:#4FAA55;}
	.st7{fill:#4C6A46;}
</style>
<path class="st0" d="M259.2,154.5c-3.6-1.2-5.6-3.2-7.7-6.3c-0.5-0.8-0.8-1.6-0.8-2.4c-2,0.3-4.1,0.4-6.2,0c-3.5-0.6-5-6.1-2.2-8.4
	c0.4-0.3,1-1.1,1.5-1.7c0,0,0,0,0,0c-1.7-0.3-3-1.9-3.5-3.5c-1.4-4.7,0.4-8.2,4-10.7c0.8-1.4,2.1-2.3,4.1-2.3c0,0,0,0,0.1,0
	c-20-29.8-54-49.4-92.5-49.4c-61.5,0-111.4,49.9-111.4,111.4S94.5,292.7,156,292.7s111.4-49.9,111.4-111.4c0-9.6-1.2-18.9-3.5-27.8
	C262.7,154.5,260.8,155.1,259.2,154.5z"/>
<text transform="matrix(0.8557 0.1313 -0.1517 0.9884 160.9937 195.0998)" class="st1 st2 st3">M</text>
<g>
	<g>
		<path class="st4" d="M76.8,212.5l0.7,1.2l-5.8,6.7c-0.7,0.8-1.5,1.7-2.2,2.5l0,0.1c1.1-0.2,2.2-0.5,3.3-0.7l8.7-1.7l0.7,1.2
			l-12.4,7.1l-0.5-0.8l8.1-4.7c1-0.6,2.3-1.3,3.4-1.8l0-0.1l-3.3,0.6l-8.9,1.6l-0.4-0.7l5.9-6.9l2.2-2.5l0-0.1c-1,0.6-2.3,1.5-3.3,2
			l-8.1,4.7l-0.4-0.8L76.8,212.5z"/>
	</g>
</g>
<g>
	<g>
		<path class="st4" d="M91.5,237.4c1.8,2.6,0.7,5.5-1.7,7.1s-5.5,1.6-7.3-0.9c-1.8-2.5-0.7-5.5,1.7-7.1
			C86.7,234.8,89.8,234.9,91.5,237.4z M83.5,242.9c1.4,2,3.9,2.4,5.9,1s2.5-3.8,1.1-5.8c-1.4-2-3.8-2.4-5.9-1
			C82.7,238.5,82.1,240.9,83.5,242.9z"/>
	</g>
</g>
<g>
	<g>
		<path class="st4" d="M103.9,246.8l0.7,0.5l-0.9,1.4l0,0c1.4-0.3,2.9-0.2,3.8,0.5c1.4,1,1.5,2.2,1,3.5c1.8-0.3,3.2-0.3,4.2,0.4
			c1.7,1.3,1.7,3,0.1,5.1l-4.1,5.4l-0.8-0.6l4-5.3c1.3-1.8,1.4-3.1,0.1-4.1c-0.8-0.6-2-0.7-3.7-0.3l-4.8,6.4l-0.8-0.6l4-5.3
			c1.3-1.8,1.4-3.1,0.1-4.1c-0.8-0.6-2-0.7-3.7-0.3l-4.8,6.4l-0.8-0.6L103.9,246.8z"/>
	</g>
</g>
<g>
	<g>
		<path class="st4" d="M120.1,266.6c0-3.5,2.2-5.6,4.7-5.6s4.7,2,4.7,5.6c0,3.5-2.2,5.5-4.7,5.5S120.1,270.1,120.1,266.6z
			 M128.5,266.6c0-2.8-1.6-4.7-3.7-4.7s-3.7,1.9-3.7,4.7s1.6,4.7,3.7,4.7S128.5,269.4,128.5,266.6z"/>
	</g>
</g>
<g>
	<g>
		<path class="st4" d="M141.1,260.1h1v11.7h0l5.2-6.4h1.1l-3.4,4.2l4,6.4h-1.1l-3.5-5.7l-2.4,2.8v2.9h-1L141.1,260.1L141.1,260.1z"
			/>
	</g>
</g>
<g>
	<g>
		<path class="st4" d="M157.1,270.6c0-3.5,2.2-5.6,4.7-5.6s4.7,2,4.7,5.6c0,3.5-2.2,5.5-4.7,5.5S157.1,274.1,157.1,270.6z
			 M165.6,270.6c0-2.8-1.6-4.7-3.7-4.7s-3.7,1.9-3.7,4.7s1.6,4.7,3.7,4.7C164,275.3,165.6,273.4,165.6,270.6z"/>
	</g>
</g>
<g>
	<g>
		<path class="st4" d="M200.8,260.6l0.2-1c1.7-0.1,3.5-0.9,5-2.3c2-1.9,2.5-3.8,1.5-5c-1.1-1.2-2.5-0.6-4.2,0.2l-2.6,1.2
			c-1.5,0.7-3.5,1.5-4.9,0.1c-1.3-1.4-0.6-3.9,1.6-5.9c1.6-1.5,3.3-2.1,4.7-2.2l-0.1,0.9c-1.3,0.1-2.7,0.7-4,1.9
			c-1.7,1.6-2.2,3.4-1.3,4.4c1,1.1,2.7,0.3,4-0.2l2.6-1.2c1.9-0.9,3.7-1.5,5.1,0s0.8,4.1-1.8,6.5
			C204.6,259.8,202.6,260.5,200.8,260.6z"/>
	</g>
</g>
<g>
	<g>
		<path class="st4" d="M217.8,246.9c-1.4-1.9-0.3-4,3.2-7.2c-0.9-1.3-2.3-2.5-4-1.3c-1.2,0.8-1.8,2.1-2,3l-0.8-0.3
			c0.3-0.9,1-2.4,2.4-3.4c2-1.5,3.8-0.5,5.1,1.4l3.9,5.5l-0.7,0.5l-0.9-1.1l0,0c-0.4,1.3-1,2.7-2.1,3.5
			C220.6,248.4,218.9,248.5,217.8,246.9z M223.5,243.2l-2.1-2.9c-3.2,2.9-3.9,4.6-2.9,6c0.9,1.2,2,1.1,3,0.4
			C222.6,245.9,223.1,244.9,223.5,243.2z"/>
	</g>
</g>
<g>
	<g>
		<path class="st4" d="M235.8,229.7l-6.4-2.4l-0.6,1.5l-0.7-0.3l0.5-1.6l-2.8-1.2l0.3-0.8l2.9,1.1l1.1-2.9l0.8,0.3l-1.1,2.9l6.4,2.4
			c1.3,0.5,2.2,0.5,2.7-0.9c0.1-0.4,0.2-0.9,0.1-1.4l0.8,0c0,0.6-0.1,1.3-0.2,1.8C239,230.2,237.6,230.4,235.8,229.7z"/>
	</g>
</g>
<g>
	<g>
		<path class="st4" d="M241.4,215.9c-3.5-0.5-5.2-3-4.8-5.5c0.4-2.5,2.7-4.4,6.2-3.9c3.5,0.5,5.1,3,4.8,5.5
			C247.2,214.6,244.9,216.4,241.4,215.9z M242.7,207.5c-2.8-0.4-4.9,0.9-5.2,3c-0.3,2.1,1.4,4,4.1,4.4s4.9-0.9,5.2-3
			C247.1,209.8,245.5,208,242.7,207.5z"/>
	</g>
</g>
<g>
	<g>
		<path class="st5" d="M64.5,198.6c-8.1-17.9-9.3-38.5-2.5-57.1c3.9-10.7,10.1-21.2,22.5-22.8c11.8-1.6,23.2,4,33.5,9
			c0.6,0.3,2.5,0,2.8-0.8c4.3-11.1,9-22.2,14.8-32.7c1-1.9,2.2-3.8,3.5-5.6c3-4,5.4-5.9,10.4-7.3c7.4-2,15,0.1,22.3,1.9
			c11.5,2.9,23.1,6.8,33.5,12.7c8.4,4.8,16.2,11.6,17.7,21.6c0.1,0.5,3-0.1,2.9-0.8c-1.7-11.6-11.8-19-21.7-23.9
			c-13.2-6.6-27.9-11.2-42.5-13.4c-9.6-1.4-18.3,0.5-24.5,8.4c-4.1,5.2-6.9,11.5-9.8,17.5c-3.4,7.2-6.5,14.5-9.4,21.9
			c0.9-0.2,1.9-0.5,2.8-0.8c-17.1-8.2-41.7-16.8-55.1,2.4c-14,20.1-13.8,48.6-4,70.3C61.9,200.1,64.7,199.1,64.5,198.6L64.5,198.6z"
			/>
	</g>
</g>
<g>
	<g>
		<path class="st6" d="M63.8,252.6c-9.3-0.2-16.2,6.9-23,12.3c-3.2,2.5-15.1,11.4-8.1,15.2c7,3.8,17.7,1.6,24.1-2.3
			c7-4.3,11.4-11.5,12.6-19.6c0.2-1.4-2.7-1.1-2.9,0.2C64.4,272.1,52,282.2,38,279.3c-9.9-2,1.8-10.8,5.4-13.6
			c5.5-4.4,11.9-11.1,19.4-11C64.1,254.8,65.7,252.7,63.8,252.6L63.8,252.6z"/>
	</g>
</g>
<g>
	<g>
		<path class="st6" d="M269.5,203.1c9.2-2.2,18.8-3.8,28.2-2.1c3.2,0.6,6.4,1.5,9.4,2.9c1.7,0.8,3.5,1.6,4.9,2.8
			c3.3,2.6,2.8,3.7-0.8,6.2c-7,4.7-18.6,5.4-26.7,4.4c-7.4-0.9-14-4.4-19.2-9.6c-0.6-0.5-3.2,0.5-2.7,1c7.1,7,16,10.2,25.9,10.1
			c8.8,0,19.6-1.6,27-6.9c7.7-5.4-11-11.2-14.6-11.9c-10.6-2.1-21.3-0.3-31.7,2.1C267.5,202.6,267.7,203.5,269.5,203.1L269.5,203.1z
			"/>
	</g>
</g>
<g>
	<g>
		<path class="st6" d="M58.6,262c-5.4,2.1-10.5,5-15.2,8.5c0.8,0.1,1.5,0.1,2.3,0.2c2.6-2.1,5.2-4.1,7.8-6.2c1.2-1-1.7-0.7-2.3-0.2
			c-2.6,2.1-5.2,4.1-7.8,6.2c-1.2,1,1.7,0.7,2.3,0.2c4.3-3.3,8.9-5.9,14-7.9C61.6,262.1,59.8,261.5,58.6,262L58.6,262z"/>
	</g>
</g>
<g>
	<g>
		<path class="st6" d="M57.4,260.1c-1.9,0.3-3.7,0.7-5.4,1.8c-1.4,0.9-2.7,3.7-4.1,4.3c0.6,0,1.3,0,1.9,0.1c0-0.1,0-0.3,0-0.4
			c-0.8,0.3-1.6,0.7-2.3,1c0.1,0,0.2,0,0.3,0.1c-0.1-0.4-0.2-0.7-0.3-1.1c-3.8,4-9.8,4.5-13.6,8.4c-2.1,2.2-2.2,4.9,1.2,5.9
			c4.6,1.3,10.7-2.7,14.4-4.9c4-2.3,9-4.9,8.9-10.1c0-0.9-2-0.4-2.4-0.1c-3.4,2.5-6.5,5.3-9.3,8.5c0.8-0.1,1.6-0.3,2.3-0.5
			c-2.8-1.3,4.5-10.2,5.4-11.2c-0.9,0-1.8-0.1-2.6-0.1c-0.8,3.5-2.2,6.5-4.5,9.2c0.9,0,1.8,0.1,2.6,0.1c0.1-2.9,0.9-5.1,3-7.1
			c-0.8-0.1-1.7-0.2-2.5-0.3c-1.5,2.3-3.1,4.2-5.2,5.9c0.9,0,1.8-0.1,2.6-0.1c0.3-1,0.6-2,1-3c-0.9,0-1.9,0.1-2.8,0.1
			c-0.9,2.8-2.2,5-4.2,7.2c0.9,0,1.8-0.1,2.6-0.1c0.1-1.1,0.1-2.2,0.1-3.4c-0.9,0-1.9,0.1-2.8,0.1c-0.2,1.2-0.5,2.4-1.1,3.5
			c-4.1-0.5-4.6-2-1.5-4.5c1.4-1.5,3.4-2.8,5-4c3.3-2.6,6.6-5.5,10.3-7.5c3.6-2,8.6-3.7,10.9,1.3c0.9,1.9,0.7,4.7-0.3,6.5
			c-2.2,3.9-9.9,6.3-13.7,8.3c0.8,0,1.6,0.1,2.4,0.1c-1.9-4.9-1.2-9.9,2.1-14c-0.9,0.1-1.9,0.2-2.8,0.3c1.1,2.8,1.1,5.2-0.4,8
			c0.9,0,1.8,0.1,2.7,0.1c1.1-2.6,2.6-4.7,4.5-6.8c-0.9,0-1.8,0.1-2.6,0.1c0.7,2.2,0.6,4.1-0.2,6.2c-0.4,1,2.5,0.7,2.9-0.3
			c0.9-2.5,1-4.2,0.2-6.7c-0.3-1-2.1-0.4-2.6,0.1c-2.1,2.2-3.7,4.4-4.9,7.2c-0.6,1.4,2.2,1,2.7,0.1c1.6-3,1.9-5.7,0.6-8.9
			c-0.4-1.1-2.3-0.3-2.8,0.3c-3.5,4.4-4.3,9.7-2.2,14.9c0.4,0.9,1.8,0.4,2.4,0.1c7-3.7,19.4-7.6,14.5-17.9
			c-3.3-6.9-12.8-1.8-17.2,1.1c-4,2.6-7.6,5.7-11.3,8.7c-2.2,1.8-6.5,4.8-4.8,8.3c1.1,2.2,3.9,2.3,5.9,1.4c2.8-1.2,3.6-3.7,4.2-6.5
			c0.2-1.2-2.5-0.6-2.8,0.1c-0.8,1.6-0.9,2.5-0.3,4.3c0.3,0.9,2.1,0.4,2.6-0.1c2.2-2.4,3.7-5,4.7-8c0.4-1.2-2.4-0.4-2.8,0.1
			c-1,1.4-1.2,2.3-1.1,3.9c0.1,1.1,2.2,0.2,2.6-0.1c2.2-1.9,4-3.9,5.6-6.3c0.8-1.2-2-0.8-2.5-0.3c-2.3,2.3-3.4,4.7-3.5,8
			c0,1.2,2.2,0.7,2.6,0.1c2.6-3,4.2-6.2,5.1-10.1c0.3-1.2-2.2-0.6-2.6-0.1c-1.7,2.1-9.8,11.1-5.3,13.3c0.6,0.3,1.8,0.1,2.3-0.5
			c2.6-3.1,5.5-5.7,8.8-8.1c-0.8,0-1.6-0.1-2.4-0.1c0.1,4.7-5.9,7.3-9.3,9.2c-1.7,0.9-3.8,2.3-5.7,2.6c-1.9,1.1-3.6,0.4-5-2
			c0.7-0.9,1.6-1.7,2.6-2.3c3.9-2.7,8.5-3.5,11.9-7.1c0.4-0.4,0.4-1-0.3-1.1c-0.1,0-0.2,0-0.3-0.1c-0.8-0.2-2,0.1-2.3,1
			c-0.2,0.7-0.2,0.7,0.2,1.3c0.4,0.5,1.5,0.3,1.9,0.1c3.4-1.5,3.1-5,7.9-5.6C58.4,261.7,59.4,259.9,57.4,260.1L57.4,260.1z"/>
	</g>
</g>
<g>
	<g>
		<path class="st6" d="M50.3,266.4c-1,0.3-1.9,0.6-2.9,0.9c0.5,0.2,1,0.5,1.5,0.7c1.9-2.3,3.9-4.5,6-6.6c1.2-1.2-1.5-0.9-2-0.6
			c-2,1.1-4,2.2-6,3.3c0.7,0.1,1.5,0.3,2.2,0.4c1.1-1.7,2.2-3.4,3.2-5.1c0.7-1.1-2.2-0.6-2.7,0c-3.5,4.4-7.3,8.5-11.5,12.3
			c-1.2,1.2,1.6,1,2.3,0.4c1-0.9,2.1-1.7,3.1-2.6c-0.8,0.1-1.7,0.2-2.5,0.4c0.7,0.7,1.9,0.8,2.5,1.4c1.6,1.5,2.1,4.8,2.8,6.8
			c0.3,0.9,2.8,0.2,2.9-0.6c0.3-2.2,1.1-3.8,2.8-5.3c-0.9,0.1-1.7,0.1-2.6,0.2c0.6,1.1,1.1,2.2,1.6,3.3c0.5,0.9,2.6,0.3,2.9-0.6
			c1.3-4.6,2.7-9.1,4-13.7c-1,0.2-1.9,0.4-2.9,0.6c0.7,2.5,1.3,5,2,7.4c0.3,1,2.9,0.2,2.9-0.8c-0.1-4.4-0.2-8.7-0.2-13
			c-0.9,0.3-1.9,0.6-2.8,0.9c2,2.9,4.1,5.8,6.1,8.7c0.5,0.7,2.7,0,2.8-0.8c0.3-2,0.2-3.5-0.4-5.5c-0.3-1-2.4-0.1-2.8,0.4
			c-1.9,2.6-3.3,5.3-4.5,8.3c1-0.1,1.9-0.3,2.9-0.4c1.1-3.5,1.4-7.6-3.1-8.3c-0.9-0.1-3.4,1.3-1.8,1.5c3.7,0.6,2.7,4.6,1.9,7.1
			c-0.3,1,2.6,0.5,2.9-0.4c1.1-2.9,2.5-5.4,4.3-7.9c-0.9,0.1-1.9,0.2-2.8,0.4c0.6,1.6,0.8,3.4,0.4,5.1c0.9-0.2,1.9-0.5,2.8-0.8
			c-2-2.9-4.1-5.8-6.1-8.7c-0.5-0.8-2.8,0-2.8,0.9c0.1,4.4,0.2,8.7,0.2,13c1-0.3,1.9-0.5,2.9-0.8c-0.7-2.5-1.3-5-2-7.4
			c-0.3-1-2.7-0.1-2.9,0.6c-1.3,4.6-2.7,9.1-4,13.7c1-0.2,1.9-0.4,2.9-0.6c-0.6-1.1-1.1-2.2-1.6-3.3c-0.4-0.8-2.1-0.3-2.6,0.2
			c-2,1.7-3,3.5-3.4,6.1c1-0.2,1.9-0.4,2.9-0.6c-0.8-2.4-1.6-4.8-2.4-7.3c-0.1-0.3-0.6-0.4-0.9-0.4c-0.7-0.3-1.5-0.6-2.2-0.9
			c-0.6-0.6-1.9-0.1-2.5,0.4c-1,0.9-2.1,1.7-3.1,2.6c0.8,0.1,1.5,0.3,2.3,0.4c4.2-4,8.2-8.2,11.8-12.7c-0.9,0-1.8,0-2.7,0
			c-1.1,1.7-2.2,3.4-3.2,5.1c-0.7,1.2,1.9,0.6,2.2,0.4c2-1.1,4-2.2,6-3.3c-0.7-0.2-1.4-0.4-2-0.6c-2.3,2.2-4.4,4.6-6.4,7
			c-0.7,0.8,1.2,0.8,1.5,0.7c1-0.3,1.9-0.6,2.9-0.9C52.3,267.3,52,265.9,50.3,266.4L50.3,266.4z"/>
	</g>
</g>
<g>
	<g>
		<path class="st6" d="M269.8,206.9c-0.6,1.7-1.3,3.3-2,5c1-0.2,1.9-0.4,2.9-0.5c-0.8-1.8-0.9-3.4-0.4-5.3c-0.7,0.4-1.3,0.7-2,1.1
			c0.2,0.4,0.5,0.8,0.7,1.2c0.9-0.3,1.7-0.6,2.6-0.9c1.6,0.1,2.3,0.9,2.3,2.4c-0.5-0.8,0.1-0.6,2,0.5c0.9-0.3,1.7-0.6,2.6-0.9
			c2.3-4.3,3.6-5.3,3.9-3c0.3,1,0.3,2.1,0.1,3.2c-1.9,1.4-2.1-1.2-1.2-2.4c0.3-1.5,1.4-2,3.1-1.2c2.3-0.8,3.1-0.1,2.3,2
			c-0.5,0.8-0.9,1.6-1.4,2.4c-4.2,3-6.4,2.7-6.5-0.9c-1-1.5-0.7-2.7,0.9-3.5c0.7-1.4,1.8-1.8,3.2-1.1c4.2,2.9-8.4,6.3,1.3,2.2
			c2.2-2.2,4.1-2.2,5.5,0.1c0.4,0.8,0.7,1.5,1.1,2.3c-0.5,0.8-0.9,1.6-1.4,2.5c-0.6-2.4,0.6-2.9,3.7-1.6c0.6,0,1.3,0.1,1.9,0.1
			c2.6-2.1,4-2,4.2,0.2c1.9-1.4,3.9-1.7,5.9-1c0.5-0.4,1.1-0.7,1.6-1c-0.1-0.2-0.2-0.3-0.4-0.5c-0.3,0.4-0.6,0.7-0.9,1.1
			c-1.6,2.6-3,2.9-4,1c-0.5-0.6-2.8-0.2-2.8,0.8c0.2,9.6-13.2,5.1-17,1.5c-0.6,0.5-1.2,1-1.9,1.5c3.2,0.2,32.1,1,28.9-6.1
			c-0.7-1.5-3.3-1.6-4.5-1.8c-3.2-0.6-6.4-1.2-9.6-1.7c-7.6-1.2-15.2-1.8-22.9-1.2c0,0.6,0,1.1,0,1.7c6.3-1.8,12.7-2.9,19.2-3.3
			c6.2-0.3,16.8-1.2,18.1,6.9c0.8-0.4,1.5-0.8,2.3-1.2c-7.3-1.4-14.7-2.9-22-4.3c-1-0.2-3.5,1.2-1.7,1.7c4.6,1.4,9.1,1.4,13.8,0.1
			c0.8-0.2,1.9-1.2,0.6-1.7c-4-1.3-7.8-1.7-12-1.2c-0.7,0.1-2.6,1.5-1,1.8c3.3,0.5,6.7,1,10,1.5c2.4,0.4,8.9,0.3,10.7,2.1
			c2.2,2.2,0,2.9-1.9,3.3c-1.5,0.3-3,0.6-4.5,1c-2.5,0.5-10.3,3.4-12.4,1.9c-0.9-0.6-3.5,0.6-2.3,1.5c3,2.2,8.3-0.3,11.5-1
			c3.3-0.7,6.6-1.4,9.8-2.1c1.1-0.3,2.9-0.5,3.7-1.5c5-5.9-20.4-8-23-8.4c-0.4,0.6-0.7,1.2-1,1.8c3.7-0.4,7.1,0,10.6,1.2
			c0.2-0.6,0.4-1.1,0.6-1.7c-4,1.1-7.7,1-11.6-0.2c-0.6,0.6-1.2,1.1-1.7,1.7c7.3,1.4,14.7,2.9,22,4.3c0.7,0.1,2.5-0.2,2.3-1.2
			c-1.2-7.1-8.9-7.9-14.9-8c-8.7-0.1-17.4,1.2-25.8,3.6c-1.4,0.4-1.7,1.9,0,1.7c9.9-0.7,19.6,0.7,29.3,2.4c1.2,0.2,2.5,0.5,3.7,0.7
			c-0.1,0.9-0.2,1.8-0.3,2.6c-0.9,1-7.2,1.2-8.8,1.3c-4.8,0.5-9.6,0.4-14.4,0.1c-0.5,0-2.7,0.7-1.9,1.5c3.9,3.7,9,5.5,14.4,4.6
			c4-0.7,8.4-3.1,8.3-7.6c-0.9,0.2-1.9,0.5-2.8,0.8c2.5,2.9,7.9,5,10.5,0.8c2.4-3.7-2.1-5.5-5-4.5c-0.4,0.1-1,0.6-0.9,1.1
			c0.5,1.5,1.5,1.7,2.9,1.5c0.6-0.1,1.5-0.4,1.6-1c1.9-7.6-12.7-0.1-7.3,3.3c1.6,1,4.6-0.7,4.1-2.7c-0.9-3-5.6-1.4-7.1-0.2
			c-1.9,1.5-3.4,4.9-0.1,5.6c2.9,0.7,4.7-2.4,4.5-4.8c-0.6-9.3-13.8-4.7-9.8,1.1c0.4,0.5,1.5,0.3,1.9,0.1c2-0.9,3.3-3.1,1.6-5.1
			c-1.5-1.8-4.6-1.2-6.4-0.2c-4.6,2.7-3.3,11.2,2.3,7.8c2.4-1.5,2.5-4.7,1.3-7c-1.8-3.6-6.1-4.8-9.8-3.7c-2.4,0.7-5.3,2.7-5.7,5.4
			c-0.5,2.9,1.9,4.5,4.5,4.1c5.6-0.7,6.7-10.1,1-10.9c-6.2-0.8-12.4,10.3-3.6,11.6c4.8,0.7,12.8-4.3,9.8-10c-3.6-6.7-12,2.4-12,7
			c0,2.8,2.2,3.8,4.7,3c3.4-1.1,4.5-5.9,3.3-9c-3.2-7.9-14.6,3.6-9,5.9c0.7,0.3,2.5,0.1,2.6-0.9c0.3-3.7-4.2-5.9-6.9-3.1
			c-2.4,2.5-0.3,7,3.3,5.6c3.9-1.6,0.8-8-2.4-8.7c-3.2-0.7-7.2,2.9-3.5,5.1c0.6,0.4,2.5,0,2.6-0.9c0.1-1.9-0.7-2.5-2.5-2.7
			c-0.7-0.1-1.8,0.3-2,1.1c-0.5,2.2-0.4,3.7,0.4,5.8c0.5,1.2,2.6,0.3,2.9-0.5c0.6-1.7,1.3-3.3,2-5
			C273.1,205.5,270.2,205.9,269.8,206.9L269.8,206.9z"/>
	</g>
</g>
<g>
	<g>
		<path class="st7" d="M272.1,209.9c9.2,1.7,18.5,1.4,27.6-1.1c1.8-0.5,1.3-2.5-0.5-2c-8.6,2.3-17.3,2.6-26,1
			C271.7,207.5,270.2,209.6,272.1,209.9L272.1,209.9z"/>
	</g>
</g>
<g>
	<g>
		<path class="st7" d="M57.5,260.8c-4.4,4.7-9.8,8.2-16,10.2c-1.7,0.5-1.4,1.8,0.3,1.2c7.1-2.3,13.2-6.1,18.3-11.5
			C61,259.9,58.1,260.2,57.5,260.8L57.5,260.8z"/>
	</g>
</g>
<g>
	<g>
		<path class="st7" d="M288.1,207.9c0.8-2.5,2.1-4.7,4-6.5c0.5-0.5-0.4-0.5-0.7-0.5c-0.6,0-1.5,0.2-1.9,0.7c-1.9,2-3.3,4.3-4.2,6.9
			C285.1,208.9,287.9,208.6,288.1,207.9L288.1,207.9z"/>
	</g>
</g>
<g>
	<g>
		<path class="st7" d="M280,207.9c0.2-2.5,1.4-4.8,3.6-6c0.5-0.2,0.8-0.7,0.3-1c-0.5-0.3-1.6,0-2,0.3c-2.7,1.5-4.5,4.1-4.8,7.2
			C277,209.4,279.9,208.8,280,207.9L280,207.9z"/>
	</g>
</g>
<g>
	<g>
		<path class="st7" d="M290.3,211.4c1.5,0.7,3.1,1.4,4.6,2.1c0.6,0.3,1.5,0.1,2-0.3c0.4-0.2,0.9-0.8,0.3-1.1
			c-1.5-0.7-3.1-1.4-4.6-2.1c-0.6-0.3-1.5-0.1-2,0.3C290.2,210.5,289.7,211.1,290.3,211.4L290.3,211.4z"/>
	</g>
</g>
<g>
	<g>
		<path class="st7" d="M279.6,212.3c1.3,0.7,2.7,1.3,4,2c0.7,0.3,1.5,0.3,2.1-0.2c0.4-0.3,0.8-1.1,0.2-1.5c-1.3-0.7-2.7-1.3-4-2
			c-0.7-0.3-1.5-0.3-2.1,0.2C279.3,211.2,278.9,212,279.6,212.3L279.6,212.3z"/>
	</g>
</g>
<g>
	<g>
		<path class="st7" d="M53.8,264.5c-1.3-1.8-3.3-2.9-5.5-3.1c-0.7-0.1-1.6,0.2-1.9,0.9c-0.3,0.7,0.3,1.2,0.9,1.3
			c1.6,0.2,2.9,1,3.9,2.3C52,266.9,54.7,265.7,53.8,264.5L53.8,264.5z"/>
	</g>
</g>
<g>
	<g>
		<path class="st7" d="M49.2,270.8c-0.3,2.2-0.6,4.5-0.8,6.7c-0.1,0.8,2.8,0.2,2.9-0.5c0.3-2.2,0.6-4.5,0.8-6.7
			C52.1,269.5,49.2,270.1,49.2,270.8L49.2,270.8z"/>
	</g>
</g>
<g>
	<g>
		<path class="st7" d="M54.5,263.1c0.9,1.3,1.8,2.7,2.7,4c0.6,0.9,3.4-0.1,2.7-1.2c-0.9-1.3-1.8-2.7-2.7-4
			C56.6,261,53.8,262,54.5,263.1L54.5,263.1z"/>
	</g>
</g>
</svg>
